<svg width="117" height="24" viewBox="0 0 117 24" fill="none" xmlns="http://www.w3.org/2000/svg">
<path d="M18.4277 15.1848C18.7782 15.1848 18.9536 15.6334 18.9536 16.5305C18.915 17.1684 18.71 17.7853 18.3596 18.3199C17.9325 19.0339 17.3954 19.6758 16.7678 20.2211C16.1146 20.7972 15.3816 21.2749 14.5916 21.6401C13.8626 21.9945 13.0649 22.1844 12.2548 22.1961C11.2228 22.1961 10.5315 21.2892 10.1811 19.4753C9.6762 20.3015 8.99037 21.0017 8.17531 21.523C7.1814 22.1055 6.03941 22.3854 4.88928 22.3276C4.2775 22.3542 3.66677 22.2528 3.09615 22.0304C2.52538 21.8078 2.00709 21.4693 1.574 21.0354C1.16805 20.6289 0.849716 20.1424 0.63875 19.6074C0.427784 19.0723 0.32856 18.4999 0.347259 17.9249C0.347259 14.6093 1.44748 11.996 3.64791 10.0845C4.40628 9.38978 5.29478 8.8528 6.26214 8.50491C7.08972 8.2481 7.95152 8.12023 8.81801 8.1243C9.57742 8.09987 10.331 8.26755 11.0086 8.61182C11.2813 8.04663 11.5927 7.76373 11.9433 7.76373C12.3106 7.77595 12.6721 7.86101 13.0063 8.01391C13.3406 8.16728 13.6411 8.38517 13.8905 8.65585C14.4019 9.06406 14.7309 9.65836 14.8059 10.309C14.4553 11.1035 14.0552 11.8752 13.6082 12.62C13.4283 13.8697 13.3502 15.1316 13.3745 16.394C13.3745 18.019 13.579 18.8318 13.9879 18.8318C14.4942 18.8318 15.7211 17.8176 17.6683 15.7893C18.0188 15.3862 18.272 15.1848 18.4277 15.1848ZM4.64107 16.9592C4.64107 18.461 5.196 19.212 6.30587 19.212C7.4937 19.1925 8.47705 18.5587 9.25607 17.3106C9.55556 16.8196 9.78176 16.2871 9.92788 15.7305C9.89576 13.8415 10.0919 11.9556 10.5121 10.1136C8.93518 10.4256 7.49521 11.2236 6.39364 12.3955C5.81246 13.0011 5.35811 13.7168 5.05712 14.5003C4.75612 15.284 4.61468 16.1203 4.64107 16.9592Z" fill="#7A8CA7"/>
<path d="M31.3089 13.2346C31.3089 12.5846 30.939 12.2597 30.199 12.2597C29.6927 12.2597 29.1279 12.7471 28.5048 13.7222C27.8849 14.6986 27.431 15.7712 27.1612 16.8966V16.955C27.1659 17.6485 27.2692 18.3381 27.468 19.003C27.6276 19.4762 27.7306 19.9678 27.7745 20.4654C27.7745 21.1155 26.9469 21.7657 25.2918 22.4158C25.0784 22.5048 24.8509 22.5544 24.62 22.5621C24.3909 22.5683 24.1664 22.4962 23.9833 22.3581C23.8003 22.2199 23.6695 22.024 23.6122 21.8015C23.4038 21.1345 23.31 20.4373 23.3349 19.739C23.3349 18.871 23.3592 18.0582 23.4077 17.3012C23.4564 16.5436 23.5051 15.8321 23.5539 15.1656C23.6026 14.5155 23.6513 13.9401 23.7 13.4393C23.7485 12.9391 23.773 12.5343 23.773 12.2255C23.773 11.5753 23.4712 11.2505 22.8674 11.2505C22.2638 11.2505 21.5627 11.9574 20.7644 13.3713C19.9661 14.785 19.5668 15.9068 19.5668 16.7354C19.5597 17.5119 19.6628 18.2849 19.8735 19.0322C20.0333 19.5059 20.1363 19.9969 20.1802 20.4946C20.1802 21.1447 19.3526 21.7948 17.6975 22.4449C17.4841 22.534 17.2565 22.5836 17.0257 22.5913C16.7966 22.5969 16.5727 22.5242 16.3898 22.3861C16.207 22.2486 16.076 22.0527 16.0179 21.8307C15.7997 21.0705 15.7059 20.2802 15.7404 19.4905C15.6937 17.4858 15.8012 15.4812 16.0618 13.493C16.3619 11.6582 17.0382 9.90474 18.0479 8.34413C18.1539 8.12306 18.3139 7.93185 18.513 7.78904C18.712 7.64594 18.9438 7.55485 19.1871 7.52515C19.8362 7.52515 20.4301 8.05204 20.9689 9.10476C21.1099 9.34664 21.2273 9.60133 21.3193 9.86538C21.6932 9.33382 22.1869 8.89801 22.7604 8.59325C23.3337 8.28788 23.9708 8.12261 24.62 8.1104C25.4459 8.10618 26.245 8.40234 26.8691 8.94416C27.1801 9.19523 27.4296 9.51387 27.5984 9.87654C27.7671 10.2392 27.8508 10.6357 27.8427 11.0357V11.3574C28.3426 10.6705 28.9972 10.1109 29.7533 9.72468C30.5095 9.33849 31.346 9.13597 32.1949 9.13431C32.6285 9.10325 33.064 9.15995 33.4754 9.30064C33.8868 9.44134 34.2659 9.66331 34.5901 9.9533C34.8567 10.2163 35.0668 10.5309 35.2075 10.8781C35.3482 11.225 35.4163 11.5973 35.408 11.9717C35.4142 12.697 35.3554 13.4219 35.2327 14.137C35.1158 14.7871 34.9845 15.3912 34.8383 15.9504C34.6922 16.5094 34.5609 17.0117 34.444 17.4573C34.3443 17.7902 34.2855 18.1339 34.2688 18.4812C34.2688 18.7247 34.3467 18.847 34.5024 18.847C34.9152 18.7897 35.2965 18.5938 35.5831 18.291C36.0117 17.9201 36.44 17.5155 36.8684 17.0767L38.0514 15.8627C38.4247 15.4823 38.6763 15.2924 38.8058 15.2924C39.0785 15.2924 39.2149 15.6172 39.2149 16.2675C39.2149 17.6327 38.5285 18.9591 37.1556 20.246C36.0052 21.4439 34.4328 22.1438 32.7742 22.1964C31.3722 22.1964 30.6712 20.9191 30.6712 18.3642C30.6998 17.469 30.8074 16.578 30.9925 15.7017C31.166 14.89 31.2718 14.0643 31.3089 13.2346Z" fill="#7A8CA7"/>
<path d="M47.3732 19.6218C46.7174 20.4663 45.8785 21.1506 44.9194 21.6218C43.9603 22.0934 42.9065 22.3399 41.838 22.3425C39.6866 22.3425 38.075 21.7916 37.004 20.6893C36.4755 20.1481 36.0628 19.504 35.7916 18.7977C35.5203 18.0908 35.3962 17.3359 35.4267 16.5793C35.3649 14.3732 36.1489 12.2273 37.6173 10.5823C38.3392 9.75725 39.2354 9.10354 40.2406 8.66879C41.2463 8.23344 42.3358 8.02775 43.4298 8.06621C44.3245 8.03348 45.2166 8.17251 46.059 8.47592C47.2079 8.94384 47.7823 9.38281 47.7823 9.79193C47.7823 10.1173 46.9787 10.2801 45.3725 10.2801C44.6222 10.2662 43.8774 10.4069 43.1839 10.6939C42.4907 10.9808 41.8636 11.4074 41.3413 11.9476C40.8047 12.4969 40.3843 13.1496 40.1061 13.8657C39.8273 14.5823 39.6964 15.3476 39.7203 16.1158C39.6953 16.923 39.9716 17.7108 40.4942 18.3245C40.772 18.629 41.1148 18.8663 41.4963 19.0197C41.878 19.1736 42.2892 19.2391 42.7 19.2121C43.523 19.2423 44.3378 19.0396 45.0513 18.6269C44.3823 18.1885 43.8391 17.5829 43.4754 16.8698C43.1116 16.1562 42.9399 15.3609 42.9771 14.5609C42.9639 13.6079 43.3261 12.6881 43.9849 12.0007C44.3168 11.6243 44.7265 11.3249 45.1854 11.123C45.6441 10.921 46.1419 10.8211 46.6432 10.8309C47.7235 10.8309 48.498 11.1281 48.965 11.723C49.4545 12.3967 49.7015 13.2165 49.6662 14.0488C49.6467 15.0836 49.4181 16.1036 48.9945 17.0473H49.1696C49.99 17.0406 50.7777 16.7241 51.3747 16.1598C51.6085 15.9261 51.8084 15.721 51.9737 15.5455C52.033 15.4713 52.1067 15.4099 52.1905 15.3645C52.2739 15.3194 52.3659 15.2912 52.4606 15.282C52.7333 15.282 52.8693 15.6074 52.8693 16.2575C52.9067 16.7543 52.831 17.2529 52.6494 17.7163C52.4673 18.1797 52.1829 18.5962 51.8182 18.9343C51.1793 19.4908 50.3614 19.7972 49.5154 19.7972C48.7972 19.8079 48.08 19.7491 47.3732 19.6218ZM47.1102 16.209C47.4228 15.5706 47.589 14.8714 47.5971 14.1608C47.5971 13.5108 47.3828 13.1859 46.9547 13.1859C46.7792 13.1859 46.6335 13.3128 46.5163 13.5659C46.4058 13.7941 46.3459 14.0437 46.3414 14.2975C46.3307 14.655 46.3936 15.0104 46.526 15.3429C46.6581 15.675 46.857 15.9761 47.1102 16.2284V16.209Z" fill="#7A8CA7"/>
<path d="M113.537 22.3379C115.151 22.3379 116.459 21.0279 116.459 19.4126C116.459 17.7966 115.151 16.4872 113.537 16.4872C111.924 16.4872 110.617 17.7966 110.617 19.4126C110.617 21.0279 111.924 22.3379 113.537 22.3379Z" fill="#0079F6"/>
<path d="M83.409 15.7208C83.7334 15.7208 83.8955 16.1695 83.8955 17.0666C83.848 17.6999 83.6367 18.31 83.2822 18.8365C82.8556 19.5511 82.318 20.1924 81.6904 20.7382C81.0377 21.3147 80.3047 21.7926 79.5144 22.1572C78.8136 22.5025 78.0463 22.6922 77.2652 22.7127C76.6724 22.7459 76.0836 22.6032 75.5712 22.3035C75.1537 22.0257 74.8176 21.6421 74.5971 21.1915C74.2729 20.5414 74.0003 19.2789 73.7798 17.4031C73.6586 16.0891 73.4442 14.7857 73.1368 13.5023C72.6514 13.4148 72.1951 13.2087 71.8078 12.9029C71.6278 12.775 71.4805 12.6052 71.3797 12.4083C71.279 12.2113 71.2273 11.9928 71.2288 11.7715C71.213 11.5668 71.2626 11.3617 71.3701 11.1868C71.4775 11.0119 71.6376 10.8753 71.8273 10.7964C72.2565 10.5949 72.7261 10.4953 73.2002 10.5039C73.6892 10.4968 74.1705 10.6287 74.5875 10.8845C75.123 10.4548 75.5737 9.92902 75.9169 9.33352C76.2837 8.55857 76.4514 7.70385 76.4034 6.84701C76.4233 6.37849 76.3395 5.91101 76.1577 5.47822C75.9757 5.04603 75.7005 4.65939 75.3522 4.34573C74.6801 3.71871 73.6612 3.40461 72.2949 3.40461C71.2478 3.36977 70.2012 3.4782 69.1838 3.72626C68.5474 3.90887 67.9271 4.14367 67.329 4.42868C66.813 4.68232 66.3556 4.91605 65.9561 5.13094C65.614 5.32999 65.2273 5.44037 64.8318 5.45273C64.4815 5.45273 64.306 5.34069 64.306 5.11616C64.3915 4.70795 64.5827 4.32944 64.8611 4.01895C65.3219 3.43069 65.8738 2.92024 66.4969 2.50736C68.2897 1.24142 70.4371 0.577457 72.6309 0.611236C74.591 0.544131 76.5347 0.992753 78.2679 1.91307C79.0852 2.35295 79.762 3.01374 80.2217 3.82096C80.6811 4.62818 80.9052 5.54834 80.8678 6.4768C80.9404 7.98312 80.4745 9.46651 79.5533 10.6599C78.6857 11.752 77.5333 12.5821 76.2233 13.059C76.524 13.7279 76.764 14.4231 76.9389 15.1362C77.1241 15.8768 77.3041 16.5597 77.4795 17.1837C77.6202 17.7213 77.8212 18.2416 78.078 18.7341C78.1441 18.9024 78.2555 19.0492 78.4003 19.1577C78.5446 19.2661 78.7163 19.3321 78.8959 19.3484C79.3379 19.2943 79.7496 19.0937 80.0642 18.7781C80.522 18.3981 80.9747 17.9833 81.4229 17.5346C81.8704 17.086 82.2699 16.6718 82.6203 16.2916C82.9901 15.9111 83.2531 15.7208 83.409 15.7208ZM70.703 5.18929C70.9563 5.18929 71.0825 5.51456 71.0825 6.16465C71.0846 6.79031 71.0457 7.41582 70.9659 8.03681C70.8043 9.10234 70.5798 10.157 70.2938 11.1965C69.5931 13.8487 69.2422 15.399 69.2422 15.8477V20.148C69.2841 20.5878 69.192 21.0298 68.9781 21.4165C68.7645 21.8027 68.439 22.1153 68.0447 22.3133L66.9787 22.8006C66.6156 22.9612 66.2217 23.0412 65.8246 23.0344C65.0069 23.0344 64.5981 22.0937 64.5981 20.2114C64.6938 17.7863 65.1363 15.3873 65.9127 13.0881C66.5429 10.7949 67.4656 8.59234 68.658 6.53501C68.8968 6.19436 69.1817 5.889 69.505 5.62812C69.8386 5.3422 70.2641 5.18673 70.703 5.18929Z" fill="#0079F6"/>
<path d="M108.558 15.7216C108.882 15.7216 109.045 16.1702 109.045 17.0673C108.994 17.7017 108.779 18.3114 108.421 18.8373C107.995 19.5519 107.458 20.1932 106.829 20.7391C106.177 21.315 105.444 21.7927 104.654 22.1575C103.863 22.5268 103 22.7165 102.127 22.7135C101.739 22.7345 101.351 22.668 100.992 22.5181C100.633 22.3692 100.312 22.1406 100.053 21.8506C99.5697 21.3165 99.3041 20.6209 99.3082 19.9002C99.3231 19.0843 99.4407 18.2731 99.6591 17.4869C99.9056 16.6024 100.165 15.6731 100.438 14.6976C101.178 12.0971 101.557 10.2741 101.577 9.22693C101.595 8.8724 101.535 8.51802 101.402 8.18853C101.34 8.06623 101.243 7.96611 101.123 7.90051C101.003 7.83506 100.866 7.80792 100.73 7.82285C100.146 7.82285 99.5226 8.17375 98.8606 8.87602C98.122 9.68671 97.4933 10.5916 96.991 11.5676C95.721 13.806 94.9911 16.3103 94.859 18.8813L94.9758 19.7001C95.0156 19.9912 95.0356 20.2843 95.0341 20.5779C95.0198 20.914 94.9298 21.2429 94.7701 21.5395C94.611 21.8357 94.3864 22.0921 94.1138 22.2895C93.5445 22.7897 92.8126 23.0649 92.055 23.0644C91.8458 23.0644 91.6412 23.0015 91.4678 22.8844C91.2943 22.7672 91.1598 22.6004 91.0811 22.4066C90.8519 21.8966 90.7424 21.3417 90.7598 20.7825C90.7987 19.8904 90.946 19.0066 91.1981 18.1498C91.4902 17.0382 91.8146 15.8582 92.1717 14.6101C93.1062 11.314 93.5834 8.85657 93.6029 7.23761C93.6331 6.57364 93.5287 5.91028 93.2959 5.28719C93.1982 5.06009 93.0315 4.86993 92.8186 4.74356C92.6064 4.61765 92.3593 4.56186 92.1133 4.58553C91.0617 4.58553 90.0196 5.33635 88.9879 6.83814C87.9557 8.33994 87.0308 10.6704 86.2129 13.83C85.9986 14.649 85.8365 15.3611 85.726 15.9656L85.6969 16.5212C85.9725 17.6751 86.1577 18.849 86.2518 20.0316C86.2518 21.1632 85.8528 21.9238 85.0543 22.3134L83.9879 22.8014C83.6442 22.9579 83.2707 23.0379 82.8928 23.0353C81.9194 23.0353 81.4323 22.1043 81.4323 20.2413C81.4323 18.379 81.9352 14.7431 82.9414 9.33429C83.3117 7.38388 83.4963 6.2918 83.4963 6.05806C83.4963 4.47801 83.0973 3.68829 82.2988 3.68829C82.0324 3.68617 81.7721 3.76806 81.5542 3.92202C81.3301 4.0781 81.106 4.24066 80.8819 4.41C80.6584 4.57875 80.4262 4.75789 80.1863 4.94609C79.948 5.10367 79.6681 5.18495 79.3827 5.18027C79.0809 5.18027 78.93 4.91698 78.93 4.39055C78.931 3.86019 79.0692 3.33934 79.3301 2.87805C79.5909 2.41661 79.9664 2.03102 80.4196 1.75732C81.4319 1.02837 82.6544 0.651973 83.9004 0.684696C85.6528 0.684696 86.6851 1.4975 86.9966 3.12249C87.0744 3.61002 87.1332 4.1271 87.1721 4.67299C88.613 1.97522 90.4334 0.626343 92.634 0.626343C95.0453 0.626343 96.4136 1.77677 96.7378 4.07809C96.8582 4.78337 96.9072 5.49906 96.8843 6.21414V6.44788C98.1496 4.6929 99.649 3.81511 101.382 3.81511C103.836 3.81511 105.063 5.29745 105.063 8.26167C105.033 9.78609 104.832 11.3022 104.464 12.7814C104.065 14.5079 103.773 15.7462 103.588 16.497C103.429 17.0649 103.336 17.6485 103.31 18.2377C103.31 18.9784 103.568 19.3492 104.084 19.3492C104.6 19.3492 105.832 18.3349 107.779 16.3067C108.143 15.9165 108.402 15.7216 108.558 15.7216Z" fill="#0079F6"/>
<path d="M66.9544 11.8355C67.4415 11.8355 67.6947 12.323 67.6947 13.2442C67.6695 14.2876 67.4481 15.3163 67.0418 16.2769C66.5744 17.4201 65.9155 18.4754 65.0951 19.3977C64.1651 20.4525 63.0454 21.3224 61.7942 21.9624C60.3262 22.701 58.6996 23.0658 57.0577 23.0254C55.2925 23.0464 53.585 22.3946 52.2816 21.2018C50.9154 19.9829 50.232 18.2258 50.232 15.9311C50.208 13.8109 50.5369 11.7014 51.206 9.69022C51.7814 7.95002 52.6402 6.31779 53.7471 4.85791C54.719 3.57146 55.9389 2.49371 57.3349 1.6886C58.4949 0.983168 59.8188 0.592904 61.1758 0.557617C63.2823 0.557617 64.3355 1.49724 64.3355 3.37602C64.3789 4.27734 64.1734 5.17293 63.7416 5.96476C63.3457 6.615 62.9432 6.93982 62.5339 6.93982C62.2628 6.93982 61.9944 6.88192 61.7467 6.77048C61.4991 6.65843 61.2782 6.49527 61.0982 6.2917C60.9284 6.0943 60.7201 5.9331 60.4868 5.81744C60.2535 5.70192 59.9995 5.63437 59.7401 5.61854C59.2532 5.61854 57.9094 5.56485 56.7753 7.39342C56.3298 7.99917 55.9998 8.68199 55.8014 9.40733C55.1364 11.1157 54.806 12.9367 54.828 14.7706C55.0049 16.0917 55.6915 17.2907 56.741 18.1101C57.3641 18.5434 58.1175 18.747 58.873 18.6856C60.2152 18.5368 61.4516 17.8852 62.3344 16.8621C62.9969 16.1501 63.581 15.4774 64.2087 14.7511C64.8367 14.0247 65.3918 13.3567 65.8689 12.7424C66.3458 12.128 66.7063 11.8355 66.9544 11.8355Z" fill="#0079F6"/>
</svg>
