<svg width="86" height="23" viewBox="0 0 86 23" fill="none" xmlns="http://www.w3.org/2000/svg">
<g clip-path="url(#clip0_1_892)">
<mask id="mask0_1_892" style="mask-type:luminance" maskUnits="userSpaceOnUse" x="0" y="0" width="86" height="23">
<path d="M85.9019 0.940491H0.901855V22.9405H85.9019V0.940491Z" fill="white"/>
</mask>
<g mask="url(#mask0_1_892)">
<path d="M17.4379 16.3724C18.7611 14.7419 19.5558 12.6571 19.5558 10.3812C19.5558 8.10746 18.7611 6.02051 17.4379 4.39215L11.5205 10.3833L17.4379 16.3724Z" fill="#1F282C"/>
<path d="M16.1444 17.6826L10.227 11.6936L4.3116 17.6826L2.36987 19.6464C4.48145 21.4829 7.22628 22.5931 10.227 22.5931C13.2276 22.5931 15.9725 21.4829 18.0841 19.6464L16.1444 17.6826ZM10.2123 14.5809L12.6531 17.0669H7.77151L10.2123 14.5809Z" fill="#3CB0CB"/>
<path d="M10.2289 0.940491C5.07679 0.940491 0.901855 5.16743 0.901855 10.3837C0.901855 12.6574 1.69657 14.7444 3.01762 16.3727L16.1442 3.08475C14.5338 1.7451 12.4746 0.940491 10.2289 0.940491Z" fill="#1F282C"/>
<path d="M30.1788 4.96606C32.5211 4.96606 33.7266 6.29509 33.7266 6.29509L32.8879 7.61136C32.8879 7.61136 31.7913 6.58381 30.2605 6.58381C28.2307 6.58381 27.0377 8.11877 27.0377 9.92758C27.0377 11.7789 28.2705 13.4093 30.2733 13.4093C31.9381 13.4093 33.0619 12.1758 33.0619 12.1758L33.9826 13.4497C33.9826 13.4497 32.6553 15.025 30.2039 15.025C27.2661 15.025 25.2363 12.817 25.2363 9.95305C25.2363 7.13155 27.3481 4.96606 30.1788 4.96606Z" fill="#1F282C"/>
<path d="M38.8703 10.4772H39.101V10.3817C39.101 9.46239 38.5328 9.14818 37.7737 9.14818C36.7861 9.14818 35.8779 9.81905 35.8779 9.81905L35.228 8.57075C35.228 8.57075 36.2973 7.70667 37.935 7.70667C39.7489 7.70667 40.8056 8.7215 40.8056 10.49V14.8634H39.2205V14.288C39.2205 14.0142 39.2478 13.7933 39.2478 13.7933H39.2205C39.235 13.7933 38.6921 15.0268 37.1215 15.0268C35.8886 15.0268 34.7793 14.2456 34.7793 12.8465C34.7813 10.6279 37.7464 10.4772 38.8703 10.4772ZM37.5577 13.6702C38.4657 13.6702 39.1156 12.6831 39.1156 11.8339V11.6682H38.8179C37.9373 11.6682 36.5155 11.7913 36.5155 12.7658C36.5155 13.2329 36.853 13.6702 37.5577 13.6702Z" fill="#1F282C"/>
<path d="M42.4604 5.13159H44.1653V12.4242C44.1653 13.1927 44.4231 13.3838 44.8698 13.3838C45.0041 13.3838 45.1279 13.3711 45.1279 13.3711V14.8933C45.1279 14.8933 44.8698 14.9336 44.5867 14.9336C43.639 14.9336 42.4604 14.6873 42.4604 12.6853V5.13159Z" fill="#1F282C"/>
<path d="M46.3064 5.13159H48.013V12.4242C48.013 13.1927 48.2711 13.3838 48.7178 13.3838C48.8541 13.3838 48.9756 13.3711 48.9756 13.3711V14.8933C48.9756 14.8933 48.7178 14.9336 48.4347 14.9336C47.487 14.9336 46.3084 14.6873 46.3084 12.6853V5.13159H46.3064Z" fill="#1F282C"/>
<path d="M50.5039 9.36708H49.6107V7.98282H50.5439V5.96811H52.2235V7.98282H53.7941V9.36708H52.2235V12.0803C52.2235 13.2309 53.1166 13.3966 53.5907 13.3966C53.7793 13.3966 53.9031 13.369 53.9031 13.369V14.8912C53.9031 14.8912 53.6997 14.9315 53.3747 14.9315C52.4142 14.9315 50.5039 14.6428 50.5039 12.299V9.36708Z" fill="#1F282C"/>
<path d="M58.5875 7.70667C60.699 7.70667 62.3914 9.22886 62.3914 11.3667C62.3914 13.5195 60.699 15.0268 58.6 15.0268C56.4886 15.0268 54.7942 13.5195 54.7942 11.3667C54.7965 9.22886 56.4886 7.70667 58.5875 7.70667ZM58.6 13.5471C59.7094 13.5471 60.6446 12.6703 60.6446 11.3667C60.6446 10.0781 59.7094 9.18642 58.6 9.18642C57.4762 9.18642 56.5432 10.0781 56.5432 11.3667C56.5432 12.6703 57.4785 13.5471 58.6 13.5471Z" fill="#1F282C"/>
<path d="M63.7186 7.87219H65.438V12.0121C65.438 12.8613 65.6539 13.4388 66.5078 13.4388C67.7534 13.4388 68.4429 12.3284 68.4429 11.0801V7.87219H70.1628V14.8633H68.51V14.0693C68.51 13.7954 68.5376 13.5746 68.5376 13.5746H68.51C68.1725 14.3007 67.2919 15.0268 66.1134 15.0268C64.637 15.0268 63.7166 14.2731 63.7166 12.3688V7.87219H63.7186Z" fill="#1F282C"/>
<path d="M75.2705 7.70667C77.0721 7.70667 77.9234 8.74908 77.9234 8.74908L77.1642 9.94217C77.1642 9.94217 76.447 9.18854 75.3626 9.18854C74.0902 9.18854 73.2637 10.163 73.2637 11.354C73.2637 12.5323 74.103 13.5471 75.4175 13.5471C76.5812 13.5471 77.4491 12.6554 77.4491 12.6554L78.112 13.8889C78.112 13.8889 77.1244 15.0268 75.2685 15.0268C72.9806 15.0268 71.517 13.3964 71.517 11.3667C71.519 9.37964 72.9832 7.70667 75.2705 7.70667Z" fill="#1F282C"/>
<path d="M79.4015 5.13159H81.1206V8.50299C81.1206 8.84476 81.0938 9.09318 81.0938 9.09318H81.1206C81.4581 8.42231 82.2991 7.70892 83.5052 7.70892C85.034 7.70892 85.9018 8.5178 85.9018 10.3691V14.8656H84.1947V10.7258C84.1947 9.87656 83.9787 9.29906 83.0981 9.29906C82.1907 9.29906 81.4877 9.90206 81.2301 10.7513C81.1482 11.0251 81.1206 11.3266 81.1206 11.6556V14.8635H79.4015V5.13159Z" fill="#1F282C"/>
</g>
</g>
<defs>
<clipPath id="clip0_1_892">
<rect width="85" height="22" fill="white" transform="translate(0.901855 0.940491)"/>
</clipPath>
</defs>
</svg>
