<svg width="55" height="33" viewBox="0 0 55 33" fill="none" xmlns="http://www.w3.org/2000/svg">
<path d="M22.9323 18.1275C20.6989 21.1094 18.7592 20.3778 17.1997 17.4248C16.5402 18.0962 15.8255 18.7099 15.0649 19.2635C13.4188 20.2959 11.6547 19.3285 11.5464 17.3694C11.5079 16.645 11.5464 15.9086 11.5127 15.1722C11.4453 14.9122 11.3346 14.6692 11.183 14.4478C10.9351 14.5729 10.5789 14.6355 10.4586 14.8376C10.1746 15.3671 9.92914 15.9182 9.72939 16.4838C9.43818 17.1817 9.18067 17.9013 8.87262 18.58C8.55735 19.2779 7.78722 19.6485 7.04356 19.4632C6.30472 19.391 5.74156 18.7677 5.74878 18.024C5.69343 17.0854 5.79932 16.1348 5.74878 15.1914C5.68861 14.8809 5.58513 14.5777 5.44073 14.2961C5.18803 14.5055 4.82462 14.6595 4.69466 14.9267C4.2013 15.9976 3.76088 17.1552 3.26751 18.2527C3.1183 18.6281 2.91133 18.9771 2.65141 19.2851C2.12195 19.8892 1.2026 19.9518 0.598531 19.4223C0.353052 19.2081 0.186993 18.9145 0.126826 18.5944C0.0810997 18.438 0.0522198 18.2792 0.0449998 18.1179C0.0449998 15.9206 -0.0271999 13.6824 0.0113066 11.4635C0.0305599 10.8739 0.223092 10.3011 0.560025 9.81734C0.911397 9.36248 1.40476 9.03518 1.9607 8.88356C2.80544 8.65733 3.22419 9.05924 3.2627 9.98099C3.29639 10.6886 3.2627 11.4033 3.2627 12.1157L3.63092 12.2192C3.90047 11.9569 4.14594 11.6729 4.36736 11.3672C4.82944 10.6091 5.22894 9.80772 5.69102 9.0448C6.02554 8.35409 6.81493 8.01476 7.54655 8.24339C8.26614 8.40945 8.74266 9.09775 8.64399 9.82938V12.212L8.95685 12.3106C9.17827 12.1109 9.38764 11.8943 9.57777 11.6632C10.2372 10.8787 10.8509 10.0484 11.532 9.28547C11.816 8.96057 12.1721 8.70547 12.5692 8.53941C13.3658 8.14953 14.3237 8.47924 14.7136 9.27584C14.8628 9.57908 14.9109 9.92083 14.8532 10.2529C14.7425 11.8462 14.6438 13.437 14.5571 15.0302C14.5547 15.319 14.5692 15.6102 14.6005 15.8966C15.7869 15.5139 16.6558 14.4935 16.8459 13.2613C16.9277 11.9472 17.0865 10.6404 17.3224 9.34564C17.4475 8.56107 18.0949 7.96181 18.8867 7.90164C19.5967 7.75484 20.3283 8.03642 20.7543 8.62605C21.2356 9.31676 21.2549 10.2289 20.7976 10.9364C20.1382 12.0339 20.1815 13.2252 20.3307 14.3996C20.4029 14.9146 20.6917 15.3719 21.1225 15.6631C21.7218 15.9543 22.2199 15.4273 22.4558 14.9002C22.877 13.822 23.2452 12.7222 23.5532 11.6055C23.7843 10.8305 23.8781 10.0123 24.1019 9.24456C24.4413 8.17359 25.1994 7.70189 26.1115 7.91608C27.0766 8.15434 27.6975 9.09294 27.5387 10.0749C27.4737 10.6236 27.2595 11.1169 27.1753 11.6512C26.9105 13.2661 26.6819 14.8858 26.422 16.5921C27.6638 16.2022 28.6505 15.8677 29.6613 15.5981C30.1354 15.4995 30.6216 15.4658 31.1053 15.5043C32.0174 15.5043 32.4458 15.9591 32.7515 16.9916C33.7551 20.2478 35.9307 22.1972 39.2952 22.7628C44.1374 23.581 48.7485 19.237 48.2672 14.3467C48.2335 14.0218 48.1902 13.6993 48.1685 13.3744C47.9736 12.4863 48.5367 11.6079 49.4248 11.413C50.3129 11.218 51.1913 11.7812 51.3862 12.6692C51.4079 12.7727 51.4223 12.8762 51.4247 12.9821C52.089 17.4296 50.6883 21.1238 47.1313 23.8626C42.2313 27.5977 35.2303 26.6519 31.4952 21.752C31.1896 21.35 30.9104 20.9265 30.6601 20.4861C29.9068 19.1792 29.6661 19.1022 28.2992 19.7568C28.2294 19.7978 28.1548 19.8339 28.0802 19.8675C26.7132 20.3778 26.203 21.338 26.0754 22.8157C25.8949 25.155 25.5267 27.4774 24.978 29.7613C24.2415 32.6758 22.4582 33.1932 20.0371 31.4075C17.0456 29.227 16.4969 25.8577 18.7856 22.9962C19.7748 21.853 20.8915 20.8278 22.1189 19.9446C22.7494 19.5787 23.0767 18.8471 22.9323 18.1275ZM22.7061 23.5858L22.3668 23.4366C21.8975 24.0648 21.4643 24.7194 21.072 25.3956C20.7495 26.0527 20.8987 26.8444 21.4402 27.3402C21.7916 27.7181 22.155 27.824 22.2536 27.1525C22.4317 25.9468 22.5376 24.7771 22.7061 23.5858Z" fill="#FF2D39"/>
<path d="M45.8051 5.94983C45.6655 4.79704 46.1444 3.65628 47.0614 2.94632C47.7424 2.33743 48.3513 1.63469 49.0276 1.01377C49.2803 0.845304 49.5595 0.717752 49.8507 0.635925C49.971 0.888624 50.0552 1.15576 50.1034 1.43253C50.1371 2.40482 50.1298 3.37711 50.1034 4.35421C50.1034 5.0353 50.4042 5.33613 51.0853 5.33131H54.084C54.3343 5.37463 54.5774 5.45646 54.8036 5.57198C54.7386 5.84393 54.6303 6.10144 54.4787 6.33489C53.6821 7.17963 52.8325 7.98104 52.0239 8.81134C51.468 9.39135 50.6641 9.66089 49.8723 9.53093C48.7653 9.36247 47.6558 9.81973 46.9892 10.7222C46.1372 11.6993 45.1384 12.5441 44.2432 13.4947C43.9905 13.7811 43.8533 14.1517 43.8533 14.532C43.9953 16.426 42.5729 18.0746 40.6813 18.2142C38.7873 18.3561 37.1387 16.9338 36.9991 15.0422C36.9895 14.9243 36.9871 14.8039 36.9919 14.686C37.0569 12.8232 38.6212 11.3648 40.484 11.4298C40.5778 11.4322 40.6741 11.4394 40.768 11.4514C41.2445 11.5309 41.7306 11.3552 42.0483 10.9894C42.9652 10.0339 43.887 9.07848 44.8761 8.19524C45.5957 7.58154 46.0361 6.92211 45.8051 5.94983Z" fill="#FF2D39"/>
<path d="M30.3491 10.149C30.4429 9.85777 30.5608 9.57619 30.7004 9.30424C33.0782 5.21052 37.7688 3.04452 42.4281 3.89167C43.564 4.11067 44.2066 4.8808 44.0429 5.83625C43.8793 6.79169 43.0153 7.36207 41.8457 7.14787C38.6424 6.56065 35.4054 7.9902 33.6823 10.7555C33.5403 11.0178 33.3742 11.2657 33.1889 11.4967C32.7341 12.0334 31.976 12.1994 31.3382 11.8986C30.6836 11.6219 30.337 11.09 30.3491 10.149Z" fill="#FF2D39"/>
</svg>
