<svg width="80" height="19" viewBox="0 0 80 19" fill="none" xmlns="http://www.w3.org/2000/svg">
<mask id="mask0_1_914" style="mask-type:alpha" maskUnits="userSpaceOnUse" x="0" y="0" width="80" height="19">
<path fill-rule="evenodd" clip-rule="evenodd" d="M0.901794 0.940491H79.9018V18.9405H0.901794V0.940491Z" fill="white"/>
</mask>
<g mask="url(#mask0_1_914)">
<path fill-rule="evenodd" clip-rule="evenodd" d="M6.2236 9.5928C8.09728 9.5928 9.29668 9.26973 10.1714 8.54857C10.9457 7.90219 11.3204 7.03216 11.3204 5.96307C11.3204 4.64524 10.7461 3.75035 9.84675 3.15368C8.87202 2.50707 7.67301 2.33334 5.64929 2.33334H2.42657L2.42618 9.5928H6.2236ZM0.90218 0.940491L5.74894 0.940955C7.84768 0.940955 9.47171 1.1897 10.7461 2.01027C11.9701 2.80576 12.8445 4.09827 12.8445 5.88852C12.8449 7.52942 12.0951 8.87164 10.9458 9.69197C10.1214 10.2891 9.14706 10.5873 8.02269 10.7613L14.0685 18.9403L12.2198 18.9405L6.32324 10.8853H2.42623L2.42584 18.9403H0.901794L0.90218 0.940491Z" fill="#474766"/>
<path fill-rule="evenodd" clip-rule="evenodd" d="M31.6243 6.56561H32.7213L32.7208 18.9406H31.624L31.6243 6.56561Z" fill="#474766"/>
<path fill-rule="evenodd" clip-rule="evenodd" d="M37.4114 16.3885C38.7433 17.207 40.4518 17.6406 42.0848 17.6406C44.1706 17.6406 45.5026 16.9422 45.503 15.522C45.5026 13.7405 43.4421 13.5478 41.5076 13.2586C39.4472 12.9457 37.1101 12.3679 37.1101 9.9603C37.1103 7.7211 39.0951 6.56561 41.9097 6.56561C43.5175 6.56561 45.1512 6.9507 46.3575 7.57687L46.3572 9.06959C45.0507 8.27527 43.3921 7.86603 41.8596 7.86603C39.9247 7.86603 38.5929 8.51565 38.5925 9.86437C38.5929 11.5253 40.6031 11.6939 42.4622 11.983C44.6986 12.32 46.9852 12.8974 46.9852 15.4014C46.9852 17.737 44.9999 18.9406 42.0098 18.9406C40.3763 18.9406 38.6677 18.5792 37.4114 17.9054V16.3885Z" fill="#474766"/>
<path fill-rule="evenodd" clip-rule="evenodd" d="M51.5615 14.6096L51.5617 8.02927H49.1796L49.18 6.7709H51.5617V3.43242L52.9958 3.19064V6.77136H56.8601V8.02927H52.9958V14.3678C52.9958 16.1581 53.2624 17.6338 55.1586 17.6343C55.7902 17.6338 56.398 17.4648 56.8601 17.1984L56.8598 18.5536C56.398 18.7712 55.6932 18.9405 54.9641 18.9405C54.0892 18.9405 53.0925 18.6985 52.4121 17.9242C51.8043 17.2227 51.5615 16.1581 51.5615 14.6096Z" fill="#474766"/>
<path fill-rule="evenodd" clip-rule="evenodd" d="M66.6997 16.2733V13.6063C65.8027 13.3422 64.7648 13.1738 63.8206 13.1738C62.1693 13.1738 60.4701 13.702 60.4706 15.4565C60.4701 16.9942 61.7679 17.6669 63.1834 17.6673C64.5052 17.6673 65.7791 17.0906 66.6997 16.2733ZM60.2576 18.1235C59.5029 17.547 59.0546 16.6821 59.0546 15.5765C59.0546 14.327 59.6209 13.4379 60.5175 12.837C61.3907 12.2608 62.5704 12.0446 63.703 12.0443C64.765 12.0443 65.732 12.2127 66.6997 12.477V11.1077C66.6997 9.95403 66.4872 9.20941 65.8505 8.63248C65.3073 8.15194 64.5056 7.8874 63.467 7.8874C62.0988 7.8874 60.848 8.34401 59.9043 9.04102V7.62332C60.848 7.02223 62.1457 6.56608 63.609 6.56561C65.001 6.56608 66.1334 6.92631 66.9122 7.59939C67.6905 8.27225 68.0919 9.32925 68.0919 10.7713V15.8891C68.0915 16.8985 68.3273 17.6436 69.2714 17.6432C69.5544 17.6432 69.8142 17.5714 70.0267 17.4511L70.0264 18.6769C69.7671 18.7968 69.4132 18.8688 69.0116 18.8688C68.0206 18.8688 67.2423 18.3882 66.912 17.4748H66.8646C65.9918 18.244 64.5761 18.9406 62.9949 18.9406C62.0039 18.9406 61.0129 18.7006 60.2576 18.1235Z" fill="#474766"/>
<path fill-rule="evenodd" clip-rule="evenodd" d="M74.6029 14.6101L74.6034 8.02927H72.2213L72.2215 6.77136H74.6034V3.43265L76.0373 3.19064V6.77136H79.9018V8.02927H76.0373V14.3678C76.0373 16.1585 76.3041 17.6343 78.2003 17.6343C78.8319 17.6343 79.4396 17.4648 79.9018 17.1988L79.9013 18.5536C79.4396 18.7714 78.7349 18.9405 78.0058 18.9405C77.1307 18.9405 76.1342 18.6987 75.4535 17.9244C74.846 17.223 74.6029 16.1585 74.6029 14.6101Z" fill="#474766"/>
<path fill-rule="evenodd" clip-rule="evenodd" d="M24.1474 10.9934C24.4837 11.489 24.6804 12.0945 24.6804 12.7534C24.6804 14.4387 23.4071 15.787 21.7492 15.787C20.0915 15.787 18.8179 14.4385 18.8179 12.7534C18.8179 11.0682 20.0915 9.71968 21.7496 9.71968C22.489 9.71968 23.1509 9.98956 23.6583 10.4367L25.8132 7.82213C24.7112 7.03036 23.3135 6.56608 21.7496 6.56561C17.9771 6.56561 15.1659 9.26236 15.1657 12.7534C15.1657 16.2443 17.9771 18.9406 21.7492 18.9406C25.5212 18.941 28.3324 16.2447 28.3324 12.7537C28.3324 11.3032 27.8463 9.99142 27.0088 8.9516L24.1474 10.9934Z" fill="#2589FF"/>
<path fill-rule="evenodd" clip-rule="evenodd" d="M32.1045 4.31573L34.9156 2.14272C34.579 1.68982 34.1846 1.28592 33.7409 0.940552L31.624 3.72277C31.8061 3.89627 31.9668 4.09578 32.1045 4.31573Z" fill="#2589FF"/>
</g>
</svg>
