<svg width="134" height="31" viewBox="0 0 134 31" fill="none" xmlns="http://www.w3.org/2000/svg">
<g clip-path="url(#clip0_1_876)">
<path d="M77.9411 12.3467H72.7056V12.8988C74.3432 12.8988 74.6065 13.2477 74.6065 15.3123V19.0343C74.6065 21.0987 74.3435 21.4767 72.7056 21.4767C71.4483 21.3024 70.5998 20.6334 69.4299 19.3541L68.0846 17.9004C69.8978 17.5801 70.8628 16.4465 70.8628 15.1669C70.8628 13.568 69.4885 12.3467 66.9144 12.3467H61.7668V12.8988C63.4045 12.8988 63.6678 13.2477 63.6678 15.3123V19.0343C63.6678 21.0987 63.4045 21.4767 61.7668 21.4767V22.0291H67.5871V21.4767C65.9494 21.4767 65.6862 21.0987 65.6862 19.0343V17.9878H66.1832L69.4299 22.0291H77.9411C82.1235 22.0291 83.937 19.8196 83.937 17.1732C83.937 14.5273 82.1237 12.3467 77.9411 12.3467ZM65.6864 17.0858V13.2191H66.8854C68.2013 13.2191 68.7865 14.1204 68.7865 15.1671C68.7865 16.185 68.2013 17.086 66.8854 17.086L65.6864 17.0858ZM78.0291 21.1278H77.8241C76.7715 21.1278 76.6252 20.8663 76.6252 19.5287V13.2191C76.6252 13.2191 77.9121 13.2191 78.0291 13.2191C81.0708 13.2191 81.6262 15.4286 81.6262 17.1443C81.6262 18.9178 81.0706 21.1278 78.0291 21.1278Z" fill="#00749A"/>
<path d="M45.4763 18.1622L47.4945 12.2301C48.0797 10.5147 47.8164 10.0206 45.9445 10.0206V9.43881H51.4431V10.0206C49.6006 10.0206 49.1619 10.4567 48.4307 12.5793L45.096 22.5235H44.716L41.7324 13.4223L38.6909 22.5235H38.3106L35.0642 12.5793C34.3622 10.4567 33.8942 10.0206 32.1978 10.0206V9.43881H38.6909V10.0206C36.9651 10.0206 36.4969 10.4275 37.1114 12.2301L39.0709 18.1622L42.025 9.43881H42.5809L45.4763 18.1622Z" fill="#00749A"/>
<path d="M55.4203 22.4069C52.2032 22.4069 49.5707 20.0519 49.5707 17.173C49.5707 14.3236 52.2034 11.9681 55.4203 11.9681C58.6376 11.9681 61.2698 14.3236 61.2698 17.173C61.2698 20.0519 58.6376 22.4069 55.4203 22.4069ZM55.4203 12.8702C52.7297 12.8702 51.7936 15.2832 51.7936 17.1732C51.7936 19.0926 52.7297 21.4767 55.4203 21.4767C58.1406 21.4767 59.0765 19.0926 59.0765 17.1732C59.0765 15.2832 58.1406 12.8702 55.4203 12.8702Z" fill="#00749A"/>
<path d="M91.1609 21.4476V22.0291H84.4631V21.4476C86.4229 21.4476 86.7738 20.9535 86.7738 18.0454V13.3934C86.7738 10.4853 86.4229 10.0203 84.4631 10.0203V9.43857H90.5173C93.5297 9.43857 95.1974 10.9797 95.1974 13.0445C95.1974 15.0508 93.5297 16.6208 90.5173 16.6208H88.8501V18.0451C88.8501 20.9535 89.2011 21.4476 91.1609 21.4476ZM90.5173 10.4853H88.8501V15.5449H90.5173C92.1554 15.5449 92.9157 14.411 92.9157 13.0445C92.9157 11.6488 92.1554 10.4853 90.5173 10.4853Z" fill="#464342"/>
<path d="M115.29 19.2961L115.144 19.8193C114.881 20.7789 114.559 21.1278 112.482 21.1278H112.073C110.552 21.1278 110.289 20.7789 110.289 18.7145V17.3772C112.57 17.3772 112.746 17.5804 112.746 19.0926H113.301V14.7599H112.746C112.746 16.2719 112.57 16.4754 110.289 16.4754V13.2191H111.897C113.974 13.2191 114.295 13.568 114.559 14.5276L114.705 15.0797H115.173L114.969 12.3467H106.369V12.8988C108.007 12.8988 108.271 13.2477 108.271 15.3123V19.0343C108.271 20.9229 108.047 21.3986 106.756 21.4664C105.528 21.2801 104.686 20.6146 103.533 19.3541L102.187 17.9004C104.001 17.5801 104.966 16.4465 104.966 15.1669C104.966 13.568 103.591 12.3467 101.018 12.3467H95.87V12.8988C97.5076 12.8988 97.7709 13.2477 97.7709 15.3123V19.0343C97.7709 21.0987 97.5079 21.4767 95.87 21.4767V22.0291H101.69V21.4767C100.053 21.4767 99.7893 21.0987 99.7893 19.0343V17.9878H100.287L103.533 22.0291H115.554L115.729 19.2963L115.29 19.2961ZM99.7891 17.0858V13.2191H100.988C102.304 13.2191 102.889 14.1204 102.889 15.1671C102.889 16.185 102.304 17.086 100.988 17.086L99.7891 17.0858Z" fill="#464342"/>
<path d="M121.227 22.4069C120.058 22.4069 119.034 21.7965 118.595 21.4182C118.449 21.5639 118.186 22 118.127 22.4069H117.571V18.3948H118.156C118.391 20.3137 119.736 21.4476 121.461 21.4476C122.397 21.4476 123.158 20.9243 123.158 20.0522C123.158 19.2963 122.485 18.7145 121.286 18.1622L119.619 17.3772C118.449 16.8243 117.571 15.8647 117.571 14.5856C117.571 13.19 118.888 11.998 120.701 11.998C121.666 11.998 122.485 12.3469 122.983 12.7539C123.129 12.6376 123.275 12.3175 123.363 11.9684H123.918V15.3997H123.304C123.099 14.033 122.339 12.8991 120.789 12.8991C119.97 12.8991 119.209 13.3643 119.209 14.0915C119.209 14.8474 119.824 15.2543 121.228 15.8941L122.836 16.6791C124.24 17.3478 124.796 18.4242 124.796 19.2963C124.796 21.1278 123.187 22.4069 121.227 22.4069Z" fill="#464342"/>
<path d="M130.236 22.4069C129.066 22.4069 128.042 21.7965 127.603 21.4182C127.457 21.5639 127.194 22 127.136 22.4069H126.58V18.3948H127.165C127.399 20.3137 128.744 21.4476 130.47 21.4476C131.406 21.4476 132.166 20.9243 132.166 20.0522C132.166 19.2963 131.494 18.7145 130.294 18.1622L128.627 17.3772C127.457 16.8243 126.579 15.8647 126.579 14.5856C126.579 13.19 127.896 11.998 129.709 11.998C130.674 11.998 131.493 12.3469 131.991 12.7539C132.137 12.6376 132.283 12.3175 132.37 11.9684H132.926V15.3997H132.312C132.107 14.033 131.347 12.8991 129.797 12.8991C128.978 12.8991 128.217 13.3643 128.217 14.0915C128.217 14.8474 128.832 15.2543 130.236 15.8941L131.844 16.6791C133.248 17.3478 133.804 18.4242 133.804 19.2963C133.804 21.1278 132.195 22.4069 130.236 22.4069Z" fill="#464342"/>
<path d="M2.94836 15.5378C2.94836 20.6312 5.92584 25.0329 10.2434 27.1188L4.06901 10.3009C3.35081 11.9013 2.94836 13.6723 2.94836 15.5378Z" fill="#464342"/>
<path d="M24.6303 14.8885C24.6303 13.2982 24.0557 12.1968 23.5629 11.3396C22.9067 10.2796 22.2917 9.38202 22.2917 8.32205C22.2917 7.13917 23.1942 6.03807 24.4653 6.03807C24.5227 6.03807 24.5771 6.04517 24.633 6.04836C22.3301 3.95096 19.262 2.67038 15.8922 2.67038C11.3702 2.67038 7.39178 4.97689 5.07733 8.47043C5.38101 8.47949 5.66721 8.48586 5.91031 8.48586C7.2642 8.48586 9.35993 8.32254 9.35993 8.32254C10.0577 8.28165 10.14 9.30048 9.44293 9.38251C9.44293 9.38251 8.74173 9.46453 7.96146 9.50518L12.6751 23.4434L15.5077 14.9977L13.4911 9.50469C12.794 9.46404 12.1337 9.38202 12.1337 9.38202C11.4362 9.34137 11.518 8.28116 12.2155 8.32205C12.2155 8.32205 14.3531 8.48537 15.625 8.48537C16.9786 8.48537 19.0746 8.32205 19.0746 8.32205C19.7728 8.28116 19.8549 9.29999 19.1576 9.38202C19.1576 9.38202 18.4549 9.46404 17.6761 9.50469L22.3538 23.3374L23.6449 19.0483C24.2045 17.2685 24.6303 15.9901 24.6303 14.8885Z" fill="#464342"/>
<path d="M16.1193 16.6634L12.2357 27.8823C13.3952 28.2212 14.6215 28.4065 15.8922 28.4065C17.3995 28.4065 18.845 28.1475 20.1905 27.6771C20.1558 27.622 20.1243 27.5635 20.0984 27.4998L16.1193 16.6634Z" fill="#464342"/>
<path d="M27.2499 9.36414C27.3056 9.77402 27.3371 10.214 27.3371 10.6873C27.3371 11.9931 27.0918 13.461 26.3529 15.2964L22.3991 26.6607C26.2472 24.4299 28.8356 20.2853 28.8356 15.5381C28.8358 13.3009 28.261 11.1971 27.2499 9.36414Z" fill="#464342"/>
<path d="M15.8922 0.538208C7.57255 0.538208 0.803589 7.26698 0.803589 15.5378C0.803589 23.8097 7.57255 30.5382 15.8922 30.5382C24.2116 30.5382 30.9815 23.8097 30.9815 15.5378C30.9813 7.26698 24.2116 0.538208 15.8922 0.538208ZM15.8922 29.8507C7.95406 29.8507 1.49544 23.4299 1.49544 15.5378C1.49544 7.64626 7.95382 1.226 15.8922 1.226C23.8301 1.226 30.2882 7.64626 30.2882 15.5378C30.2882 23.4299 23.8301 29.8507 15.8922 29.8507Z" fill="#464342"/>
</g>
<defs>
<clipPath id="clip0_1_876">
<rect width="133" height="30" fill="white" transform="translate(0.803589 0.538208)"/>
</clipPath>
</defs>
</svg>
