<svg width="93" height="20" viewBox="0 0 93 20" fill="none" xmlns="http://www.w3.org/2000/svg">
<g clip-path="url(#clip0_1_843)">
<mask id="mask0_1_843" style="mask-type:alpha" maskUnits="userSpaceOnUse" x="0" y="0" width="19" height="20">
<path d="M9.74346 19.3717C14.8245 19.3717 18.9435 15.2526 18.9435 10.1716C18.9435 5.0906 14.8245 0.971619 9.74346 0.971619C4.66243 0.971619 0.543457 5.0906 0.543457 10.1716C0.543457 15.2526 4.66243 19.3717 9.74346 19.3717Z" fill="white"/>
</mask>
<g mask="url(#mask0_1_843)">
<path d="M0.543457 0.972427H18.9435V19.3723H0.543457V0.972427Z" fill="url(#paint0_linear_1_843)"/>
<path d="M0.543457 12.294H6.20499V19.371H0.543457V12.294Z" fill="url(#paint1_linear_1_843)"/>
<path d="M6.20496 10.0294C6.20496 8.84045 6.20493 8.24599 6.43635 7.79165C6.63988 7.39218 6.96468 7.06739 7.36416 6.86386C7.81846 6.63246 8.41293 6.63246 9.60187 6.63246H13.2819V19.371H6.20496V10.0294Z" fill="url(#paint2_linear_1_843)"/>
<path d="M13.2819 0.970917H18.9434V19.371H13.2819V0.970917Z" fill="url(#paint3_linear_1_843)"/>
</g>
<path d="M28.7279 16.8543H30.8272L33.5982 6.59847V16.8543H35.8955V3.09396H32.6868L29.8959 13.4093L27.0849 3.09396H23.8973V16.8543H25.9566V6.59776L28.7279 16.8537V16.8543ZM45.4981 16.1806V14.2614C44.7658 14.7561 43.5379 15.1913 42.39 15.1913C40.6675 15.1913 40.0142 14.3796 39.9151 12.7165H45.598V11.4695C45.598 8.00466 44.073 6.69827 41.7171 6.69827C38.8467 6.69827 37.4801 8.89566 37.4801 11.9048C37.4801 15.3696 39.1828 17.0525 42.1928 17.0525C43.6971 17.0525 44.8056 16.6562 45.4991 16.182L45.4981 16.1806ZM41.6776 8.55877C42.8451 8.55877 43.2018 9.52833 43.2018 10.776V10.9741H39.9151C39.9747 9.3896 40.5485 8.55806 41.6776 8.55806V8.55877ZM53.9793 8.75622V6.89501H46.0791V8.75622H48.8513V16.8543H51.208V8.75552H53.9793V8.75622ZM57.5516 6.89501H55.374V19.7248H57.73V15.6859C58.3244 16.5769 59.1948 17.0518 60.2046 17.0518C62.5012 17.0518 64.0851 15.2104 64.0851 11.8644C64.0851 8.53826 62.5409 6.69756 60.3236 6.69756C59.2147 6.69756 58.3038 7.21204 57.6706 8.18231L57.5516 6.89501ZM59.6109 15.1906C58.3634 15.1906 57.73 14.1814 57.73 11.8842C57.73 9.56796 58.4032 8.55806 59.7292 8.55806C61.0164 8.55806 61.6499 9.56796 61.6499 11.8644C61.6499 14.1814 60.9769 15.1906 59.6109 15.1906ZM65.6596 6.89501V16.8537H67.7587L71.3617 10.6967V16.8537H73.6388V6.89572H71.5398L67.937 13.0533V6.89641H65.6596V6.89501ZM81.4574 16.8543H84.1303L80.3492 11.5679L83.6754 6.89501H81.2989L77.9729 11.5679V6.8943H75.617V16.853H77.9729V12.0421L81.4574 16.8537V16.8543ZM92.1676 10.0633C92.1676 7.64726 90.9405 6.73717 88.4459 6.73717C86.8819 6.73717 85.654 7.23187 84.9416 7.64797V9.6083C85.5748 9.13271 86.9612 8.61752 88.1687 8.61752C89.2972 8.61752 89.812 9.01382 89.812 10.0825V10.6373H89.4361C85.8324 10.6373 84.2289 11.8248 84.2289 13.8445C84.2289 15.8643 85.4561 16.9924 87.2777 16.9924C88.6638 16.9924 89.2577 16.5373 89.7126 16.0618H89.812C89.8316 16.3194 89.9108 16.6562 89.9903 16.8543H92.2866C92.2074 16.0448 92.1676 15.2319 92.1676 14.4185V10.0633ZM89.812 14.4779C89.5146 14.9138 88.9604 15.2706 88.129 15.2706C87.1388 15.2706 86.6442 14.7157 86.6442 13.8643C86.6442 12.7356 87.4558 12.3202 89.4756 12.3202H89.812V14.4786V14.4779Z" fill="#1B202B"/>
</g>
<defs>
<linearGradient id="paint0_linear_1_843" x1="13.7299" y1="14.3117" x2="-1.4501" y2="-6.84828" gradientUnits="userSpaceOnUse">
<stop stop-color="#4643B9"/>
<stop offset="1" stop-color="#1E8AFF"/>
</linearGradient>
<linearGradient id="paint1_linear_1_843" x1="6.57795" y1="16.9223" x2="-10.1575" y2="14.0073" gradientUnits="userSpaceOnUse">
<stop stop-color="#FF002E"/>
<stop offset="1" stop-color="#FFADA1"/>
</linearGradient>
<linearGradient id="paint2_linear_1_843" x1="49.7281" y1="47.3248" x2="53.941" y2="12.8693" gradientUnits="userSpaceOnUse">
<stop stop-color="#3C3BA0"/>
<stop offset="0.49" stop-color="#1E8AFF"/>
<stop offset="1" stop-color="#00B2FF"/>
</linearGradient>
<linearGradient id="paint3_linear_1_843" x1="13.2819" y1="1.9171" x2="29.3052" y2="10.1971" gradientUnits="userSpaceOnUse">
<stop stop-color="#FFEA1A"/>
<stop offset="1" stop-color="#FFB800"/>
</linearGradient>
<clipPath id="clip0_1_843">
<rect width="92" height="19" fill="white" transform="translate(0.543457 0.850159)"/>
</clipPath>
</defs>
</svg>
