<svg width="28" height="29" viewBox="0 0 28 29" fill="none" xmlns="http://www.w3.org/2000/svg">
<path d="M14 16.9326C15.3562 16.9326 16.4664 15.8279 16.4664 14.4662C16.4664 13.9303 16.2914 13.4326 16.0016 13.0279C15.5531 12.41 14.8258 11.9998 14.0055 11.9998C13.1852 11.9998 12.4578 12.4045 12.0094 13.0279C11.7195 13.4326 11.5445 13.9303 11.5445 14.4662C11.5391 15.8279 12.6438 16.9326 14 16.9326Z" fill="black"/>
<path d="M19.3813 11.4584V9.08496H19.075L17.0078 9.09043L17.0187 11.4639L19.3813 11.4584Z" fill="black"/>
<path d="M17.8281 14.4717C17.8281 16.5826 16.1109 18.2998 14 18.2998C11.8891 18.2998 10.1719 16.5826 10.1719 14.4717C10.1719 13.9631 10.2758 13.4764 10.4563 13.0334H8.36719V18.7646C8.36719 19.5029 8.96875 20.1045 9.70703 20.1045H18.293C19.0312 20.1045 19.6328 19.5029 19.6328 18.7646V13.0334H17.5438C17.7297 13.4764 17.8281 13.9631 17.8281 14.4717Z" fill="black"/>
<path d="M14 0.47168C6.26719 0.47168 0 6.73887 0 14.4717C0 22.2045 6.26719 28.4717 14 28.4717C21.7328 28.4717 28 22.2045 28 14.4717C28 6.73887 21.7328 0.47168 14 0.47168ZM21 18.7646C21 20.2576 19.7859 21.4717 18.293 21.4717H9.70703C8.21406 21.4717 7 20.2576 7 18.7646V10.1732C7 8.68027 8.21406 7.46621 9.70703 7.46621H18.293C19.7859 7.46621 21 8.68027 21 10.1732V18.7646Z" fill="black"/>
</svg>
