<svg width="144" height="31" viewBox="0 0 144 31" fill="none" xmlns="http://www.w3.org/2000/svg">
<path d="M7.15781 23.9591C3.20466 23.9591 0 20.7544 0 16.8013V3.9598C0 2.65415 1.05844 1.5957 2.3641 1.5957C3.66975 1.5957 4.72819 2.65415 4.72819 3.9598V15.2671C4.72819 17.9146 6.87441 20.0608 9.5219 20.0608H12.3665C13.443 20.0608 14.3156 20.9334 14.3156 22.0099C14.3156 23.0864 13.4429 23.9591 12.3665 23.9591H7.15781Z" fill="black"/>
<path d="M12.9234 1.59586C16.8765 1.59586 20.0812 4.80052 20.0812 8.75367V21.5951C20.0812 22.9008 19.0227 23.9592 17.7171 23.9592C16.4114 23.9592 15.353 22.9008 15.353 21.5951V10.2879C15.353 7.64038 13.2068 5.49416 10.5593 5.49416H7.71471C6.63823 5.49416 5.76556 4.6215 5.76556 3.54501C5.76556 2.46853 6.63823 1.59586 7.71472 1.59586H12.9234Z" fill="black"/>
<path d="M25.4264 1.5957C26.732 1.5957 27.7904 2.65415 27.7904 3.9598V21.595C27.7904 22.9006 26.732 23.9591 25.4264 23.9591C24.1207 23.9591 23.0623 22.9006 23.0623 21.595V3.9598C23.0623 2.65415 24.1207 1.5957 25.4264 1.5957Z" fill="black"/>
<circle cx="9.92954" cy="12.8066" r="2.24216" fill="#0E0C0F"/>
<path d="M139.916 4.36836V0.614746H144V4.36836H139.916ZM139.916 23.3767V6.30523H144V23.3767H139.916Z" fill="#0E0C0F"/>
<path d="M138.054 6.30541V23.3769H134.3V21.2598C133.53 22.1006 132.664 22.7563 131.703 23.2267C130.752 23.6972 129.636 23.9324 128.355 23.9324C126.823 23.9324 125.442 23.567 124.211 22.8363C122.979 22.0956 121.973 21.0246 121.193 19.6232C120.422 18.2219 120.036 16.6254 120.036 14.8336C120.036 13.102 120.412 11.5355 121.163 10.1341C121.923 8.73275 122.969 7.65171 124.301 6.89098C125.642 6.12023 127.038 5.73486 128.49 5.73486C129.481 5.73486 130.361 5.89001 131.132 6.20031C131.903 6.51061 132.559 6.88597 133.099 7.3264C133.65 7.75681 134.03 8.13718 134.24 8.4675H134.3V6.30541H138.054ZM134.18 14.8036C134.18 13.2121 133.7 11.9258 132.739 10.9449C131.788 9.96394 130.597 9.47347 129.165 9.47347C128.244 9.47347 127.394 9.70869 126.613 10.1791C125.842 10.6396 125.232 11.3102 124.781 12.1911C124.341 13.0619 124.12 13.9728 124.12 14.9237C124.12 16.4152 124.611 17.6664 125.592 18.6773C126.583 19.6783 127.784 20.1788 129.195 20.1788C130.687 20.1788 131.888 19.6583 132.799 18.6173C133.72 17.5763 134.18 16.305 134.18 14.8036Z" fill="#0E0C0F"/>
<path d="M114.075 23.3769V19.293H118.159V23.3769H114.075Z" fill="#0E0C0F"/>
<path d="M104.779 23.9324C103.578 23.9324 102.422 23.7022 101.311 23.2417C100.2 22.7813 99.244 22.1507 98.4432 21.3499C97.6424 20.5391 97.0168 19.6633 96.5664 18.7224C95.9758 17.5012 95.6805 16.205 95.6805 14.8336C95.6805 13.2521 96.0809 11.7457 96.8817 10.3143C97.6925 8.87289 98.8186 7.75181 100.26 6.95104C101.701 6.14025 103.208 5.73486 104.779 5.73486C106.361 5.73486 107.867 6.13525 109.299 6.93602C110.73 7.73679 111.841 8.84786 112.632 10.2692C113.423 11.6806 113.818 13.2121 113.818 14.8637C113.818 16.0348 113.623 17.1358 113.232 18.1668C112.852 19.1878 112.327 20.0787 111.656 20.8394C110.995 21.6002 110.305 22.1907 109.584 22.6111C108.873 23.0315 108.103 23.3568 107.272 23.5871C106.441 23.8173 105.61 23.9324 104.779 23.9324ZM104.779 20.1788C106.211 20.1788 107.392 19.6533 108.323 18.6023C109.264 17.5512 109.734 16.3101 109.734 14.8787C109.734 13.9177 109.504 13.0119 109.043 12.1611C108.583 11.3002 107.957 10.6396 107.167 10.1791C106.386 9.70869 105.595 9.47347 104.794 9.47347C104.004 9.47347 103.198 9.70369 102.377 10.1641C101.566 10.6246 100.926 11.2702 100.455 12.101C99.9947 12.9318 99.7645 13.8527 99.7645 14.8637C99.7645 15.8546 99.9947 16.7655 100.455 17.5963C100.916 18.4271 101.536 19.0677 102.317 19.5181C103.108 19.9586 103.928 20.1788 104.779 20.1788Z" fill="#0E0C0F"/>
<path d="M82.7518 23.3767V0.614746H86.8358V14.338H86.8958L92.3461 6.30523H97.0456L90.9047 14.6683L97.8564 23.3767H92.6914L86.8958 15.389H86.8358V23.3767H82.7518Z" fill="#0E0C0F"/>
<path d="M76.4145 6.30541H80.3783V20.2388C80.3783 23.6221 79.3623 26.2346 77.3304 28.0764C75.6588 29.5778 73.6318 30.3286 71.2495 30.3286C69.698 30.3286 68.3067 30.0483 67.0755 29.4877C65.8543 28.9372 64.8534 28.2215 64.0726 27.3407C63.482 26.66 62.9515 25.7692 62.4811 24.6681H67.1656C67.7361 25.3087 68.2967 25.7642 68.8472 26.0344C69.5679 26.3948 70.3737 26.5749 71.2645 26.5749C72.1053 26.5749 72.8661 26.4098 73.5467 26.0795C74.2374 25.7592 74.7929 25.3588 75.2133 24.8783C75.6438 24.3978 75.9641 23.8773 76.1743 23.3168C76.3945 22.7563 76.5346 22.0706 76.5947 21.2598L76.5346 21.1998C75.2033 23.0215 73.3716 23.9324 71.0393 23.9324C69.5479 23.9324 68.0965 23.532 66.6851 22.7312C65.2838 21.9205 64.1877 20.7944 63.397 19.353C62.6062 17.9116 62.2108 16.3701 62.2108 14.7285C62.2108 13.3372 62.4561 12.106 62.9465 11.035C63.447 9.96394 64.0576 9.07308 64.7783 8.3624C65.499 7.6417 66.2897 7.06615 67.1506 6.63573C68.3617 6.03515 69.628 5.73486 70.9492 5.73486C72.0503 5.73486 73.0713 5.95508 74.0122 6.3955C74.9531 6.83592 75.7338 7.50657 76.3544 8.40744H76.4145V6.30541ZM76.2944 14.6685C76.2944 13.9978 76.1392 13.2971 75.8289 12.5664C75.5987 12.0259 75.2684 11.5254 74.838 11.065C74.4176 10.6046 73.9021 10.2242 73.2915 9.9239C72.6909 9.62361 71.9902 9.47347 71.1895 9.47347C69.8382 9.47347 68.6821 9.97395 67.7211 10.9749C66.7702 11.9659 66.2948 13.2221 66.2948 14.7435C66.2948 15.7545 66.525 16.6854 66.9854 17.5362C67.4459 18.377 68.0815 19.0277 68.8923 19.4881C69.703 19.9486 70.5338 20.1788 71.3847 20.1788C72.1053 20.1788 72.756 20.0336 73.3365 19.7434C73.9271 19.4531 74.4376 19.0727 74.868 18.6023C75.3084 18.1318 75.6538 17.5613 75.904 16.8906C76.1643 16.21 76.2944 15.4692 76.2944 14.6685Z" fill="#0E0C0F"/>
<path d="M61.2487 16.6803H48.0059C48.4163 17.8314 49.0269 18.7022 49.8377 19.2928C50.6585 19.8834 51.6494 20.1787 52.8106 20.1787C53.7214 20.1787 54.4822 19.9985 55.0928 19.6381C55.7033 19.2678 56.2188 18.7223 56.6392 18.0016H60.9484C60.6681 18.7823 60.3578 19.4329 60.0175 19.9534C59.487 20.7342 58.8464 21.4299 58.0957 22.0405C57.3549 22.651 56.5442 23.1165 55.6633 23.4368C54.7925 23.7671 53.7665 23.9323 52.5853 23.9323C49.7326 23.9323 47.4454 22.8713 45.7237 20.7492C44.3724 19.0676 43.6968 17.0907 43.6968 14.8185C43.6968 13.1369 44.0922 11.5804 44.8829 10.149C45.6737 8.7076 46.7697 7.59653 48.1711 6.81578C49.5824 6.02502 51.1189 5.62964 52.7805 5.62964C54.3921 5.62964 55.8735 6.01001 57.2248 6.77074C58.5761 7.52146 59.6271 8.58749 60.3779 9.96882C61.1286 11.3401 61.5039 12.8116 61.5039 14.3831C61.5039 15.1438 61.4189 15.9095 61.2487 16.6803ZM57.3149 13.3771C57.0647 12.0859 56.5291 11.0999 55.7084 10.4193C54.8876 9.72859 53.8716 9.38326 52.6604 9.38326C51.7595 9.38326 50.9688 9.58345 50.2881 9.98383C49.6175 10.3742 49.0569 10.9197 48.6065 11.6204C48.3162 12.0809 48.076 12.6664 47.8858 13.3771H57.3149Z" fill="#0E0C0F"/>
<path d="M38.26 23.3767V0.614746H42.3439V23.3767H38.26Z" fill="#0E0C0F"/>
</svg>
