<svg width="22" height="20" viewBox="0 0 22 20" fill="none" xmlns="http://www.w3.org/2000/svg">
<path d="M21.0787 0.866853C20.9172 0.727369 20.7207 0.634743 20.5104 0.599019C20.3 0.563294 20.084 0.585835 19.8855 0.664197L1.86237 7.74475C1.62676 7.83731 1.42746 8.00367 1.29429 8.21894C1.16112 8.43421 1.10123 8.68682 1.1236 8.93896C1.14597 9.1911 1.24939 9.42922 1.41838 9.61769C1.58737 9.80615 1.81284 9.93483 2.06106 9.98446L6.95308 10.9629V17.0013C6.95063 17.2336 7.01838 17.4613 7.14746 17.6544C7.27653 17.8476 7.46092 17.9973 7.67649 18.0839C7.8209 18.1444 7.97583 18.1757 8.13239 18.1761C8.28538 18.1757 8.43675 18.1448 8.57773 18.0854C8.7187 18.0259 8.84646 17.9391 8.9536 17.8299L11.7462 15.0373L15.8666 18.6633C16.079 18.8518 16.353 18.9561 16.637 18.9564C16.7604 18.9563 16.8831 18.9368 17.0005 18.8987C17.1942 18.8373 17.3684 18.7262 17.5057 18.5764C17.643 18.4267 17.7386 18.2436 17.7831 18.0453L21.4563 2.0167C21.5042 1.80883 21.4944 1.59179 21.4278 1.38911C21.3613 1.18643 21.2405 1.00582 21.0787 0.866853ZM1.9018 8.8699C1.89208 8.78551 1.91111 8.70032 1.9558 8.62809C2.00049 8.55585 2.06824 8.5008 2.14809 8.47183L18.6691 1.98139L7.25311 10.2262L2.21427 9.21846C2.13057 9.20399 2.0542 9.1617 1.99749 9.09845C1.94079 9.0352 1.90708 8.95468 1.9018 8.8699ZM8.40114 17.2775C8.34651 17.3321 8.27691 17.3693 8.20114 17.3844C8.12537 17.3995 8.04684 17.3917 7.97546 17.3622C7.90409 17.3326 7.84308 17.2825 7.80016 17.2183C7.75724 17.1541 7.73433 17.0786 7.73433 17.0013V11.5068L11.1585 14.5201L8.40114 17.2775ZM20.6948 1.84218L17.0215 17.8708C17.0064 17.9367 16.9744 17.9976 16.9287 18.0475C16.883 18.0974 16.8251 18.1345 16.7607 18.1553C16.6963 18.176 16.6276 18.1797 16.5613 18.166C16.4951 18.1522 16.4335 18.1215 16.3827 18.0768L7.96922 10.6728L20.6316 1.5278C20.6649 1.57217 20.6879 1.62343 20.6988 1.67783C20.7098 1.73223 20.7084 1.78838 20.6948 1.84218Z" fill="#0E0C0F" stroke="#0E0C0F"/>
</svg>
