<svg width="28" height="29" viewBox="0 0 28 29" fill="none" xmlns="http://www.w3.org/2000/svg">
<path d="M14 0.47168C11.2311 0.47168 8.5243 1.29276 6.22202 2.8311C3.91974 4.36943 2.12532 6.55593 1.0657 9.1141C0.00607167 11.6722 -0.271181 14.4872 0.269009 17.2029C0.809199 19.9187 2.14258 22.4132 4.10051 24.3712C6.05845 26.3291 8.553 27.6625 11.2688 28.2027C13.9844 28.7429 16.7995 28.4655 19.3576 27.4059C21.9158 26.3463 24.1022 24.552 25.6406 22.2497C27.1789 19.9474 28 17.2407 28 14.4717C28 10.7586 26.5249 7.19769 23.8996 4.57219C21.274 1.94667 17.713 0.47168 14 0.47168ZM20.8775 10.0617L18.585 20.8942C18.41 21.6642 17.955 21.8392 17.3075 21.4892L13.8075 18.8992L12.0575 20.5267C11.9751 20.6343 11.8692 20.7218 11.7479 20.7825C11.6267 20.8431 11.4931 20.8753 11.3575 20.8767L11.6025 17.3767L18.0775 11.5142C18.375 11.2692 18.0775 11.1292 17.6575 11.3742L9.7125 16.3617L6.2125 15.2767C5.46 15.0492 5.4425 14.5242 6.37 14.1742L19.8625 8.92417C20.5275 8.73167 21.0875 9.11667 20.8775 10.0617Z" fill="black"/>
</svg>
