<svg width="28" height="29" viewBox="0 0 28 29" fill="none" xmlns="http://www.w3.org/2000/svg">
<path d="M14 0.47168C6.26792 0.47168 0 6.7396 0 14.4717C0 22.2038 6.26792 28.4717 14 28.4717C21.7321 28.4717 28 22.2038 28 14.4717C28 6.7396 21.7321 0.47168 14 0.47168ZM19.3842 16.2669C19.3842 16.2669 20.6223 17.489 20.9271 18.0563C20.9358 18.0679 20.9402 18.0796 20.9431 18.0854C21.0671 18.294 21.0963 18.4558 21.035 18.5769C20.9329 18.7781 20.5829 18.8773 20.4633 18.8861H18.2758C18.1242 18.8861 17.8062 18.8467 17.4212 18.5813C17.1252 18.3742 16.8335 18.0344 16.5492 17.7033C16.1248 17.2104 15.7573 16.7846 15.3869 16.7846C15.3398 16.7845 15.2931 16.7919 15.2483 16.8065C14.9683 16.8969 14.6096 17.2965 14.6096 18.3611C14.6096 18.6936 14.3471 18.8846 14.1619 18.8846H13.16C12.8187 18.8846 11.041 18.765 9.46604 17.104C7.53812 15.0696 5.80271 10.9892 5.78812 10.9513C5.67875 10.6873 5.90479 10.5458 6.15125 10.5458H8.36062C8.65521 10.5458 8.75146 10.7252 8.81854 10.8842C8.89729 11.0694 9.18604 11.8058 9.66 12.6342C10.4285 13.9846 10.8996 14.5329 11.2773 14.5329C11.3481 14.5321 11.4177 14.5141 11.48 14.4804C11.9729 14.2063 11.881 12.449 11.8592 12.0844C11.8592 12.0158 11.8577 11.2983 11.6054 10.9542C11.4246 10.7048 11.1169 10.61 10.9302 10.575C11.0058 10.4708 11.1053 10.3862 11.2204 10.3286C11.5587 10.1594 12.1683 10.1346 12.7735 10.1346H13.1104C13.7667 10.1433 13.9358 10.1856 14.1735 10.2454C14.6548 10.3606 14.665 10.6713 14.6227 11.7344C14.6096 12.0363 14.5965 12.3775 14.5965 12.78C14.5965 12.8675 14.5921 12.9608 14.5921 13.06C14.5775 13.6011 14.56 14.215 14.9421 14.4673C14.9919 14.4986 15.0495 14.5152 15.1083 14.5154C15.241 14.5154 15.6406 14.5154 16.7227 12.659C17.0564 12.0614 17.3464 11.4405 17.5904 10.8011C17.6123 10.7631 17.6765 10.6465 17.7523 10.6013C17.8083 10.5727 17.8703 10.5582 17.9331 10.559H20.5304C20.8133 10.559 21.0073 10.6013 21.0437 10.7106C21.1079 10.8842 21.0321 11.4136 19.8465 13.0192L19.3171 13.7177C18.2423 15.1265 18.2423 15.1979 19.3842 16.2669Z" fill="black"/>
</svg>
