<svg width="28" height="24" viewBox="0 0 28 24" fill="none" xmlns="http://www.w3.org/2000/svg">
<path d="M7.15781 23.045C3.20466 23.045 0 19.8403 0 15.8872V3.04574C0 1.74009 1.05844 0.681641 2.3641 0.681641C3.66975 0.681641 4.72819 1.74008 4.72819 3.04574V14.353C4.72819 17.0005 6.87441 19.1467 9.5219 19.1467H12.3665C13.443 19.1467 14.3156 20.0194 14.3156 21.0959C14.3156 22.1723 13.4429 23.045 12.3665 23.045H7.15781Z" fill="url(#paint0_linear_1_1073)"/>
<path d="M12.9234 0.681799C16.8765 0.681799 20.0812 3.88646 20.0812 7.8396V20.6811C20.0812 21.9867 19.0227 23.0452 17.7171 23.0452C16.4114 23.0452 15.353 21.9867 15.353 20.6811V9.37381C15.353 6.72632 13.2068 4.5801 10.5593 4.5801H7.71471C6.63823 4.5801 5.76556 3.70744 5.76556 2.63095C5.76556 1.55446 6.63823 0.681799 7.71472 0.681799H12.9234Z" fill="url(#paint1_linear_1_1073)"/>
<path d="M25.4264 0.681641C26.732 0.681641 27.7904 1.74008 27.7904 3.04574V20.6809C27.7904 21.9866 26.732 23.045 25.4264 23.045C24.1207 23.045 23.0623 21.9866 23.0623 20.6809V3.04574C23.0623 1.74009 24.1207 0.681641 25.4264 0.681641Z" fill="url(#paint2_linear_1_1073)"/>
<circle cx="9.92954" cy="11.8926" r="2.24216" fill="#12F287"/>
<defs>
<linearGradient id="paint0_linear_1_1073" x1="7.15781" y1="23.045" x2="7.15781" y2="0.681641" gradientUnits="userSpaceOnUse">
<stop stop-color="#12F287"/>
<stop offset="1" stop-color="#8BF9C4"/>
</linearGradient>
<linearGradient id="paint1_linear_1_1073" x1="12.9234" y1="0.681799" x2="12.9234" y2="23.0452" gradientUnits="userSpaceOnUse">
<stop stop-color="#12F287"/>
<stop offset="1" stop-color="#8BF9C4"/>
</linearGradient>
<linearGradient id="paint2_linear_1_1073" x1="25.4264" y1="23.045" x2="25.4264" y2="0.681641" gradientUnits="userSpaceOnUse">
<stop stop-color="#12F287"/>
<stop offset="1" stop-color="#8BF9C4"/>
</linearGradient>
</defs>
</svg>
