<svg width="46" height="22" viewBox="0 0 46 22" fill="none" xmlns="http://www.w3.org/2000/svg">
<g clip-path="url(#clip0_1_822)">
<mask id="mask0_1_822" style="mask-type:luminance" maskUnits="userSpaceOnUse" x="-189" y="-49" width="427" height="409">
<path d="M-188.756 359.484H237.334V-48.2259H-188.756V359.484Z" fill="white"/>
</mask>
<g mask="url(#mask0_1_822)">
<path d="M23.6954 18.5173C22.8257 18.4618 21.8229 18.3159 21.0319 18.0968C20.8838 18.0557 20.2704 17.8399 20.1143 17.7714C17.3607 16.5509 15.4424 13.8866 15.4424 10.7956C15.4424 6.55604 19.0471 3.10272 23.4806 3.10272C27.8749 3.10272 31.4552 6.49713 31.5168 10.6888H34.4207C34.3592 4.96568 29.4768 0.327471 23.4806 0.327471C17.4487 0.327471 12.5392 5.02252 12.5392 10.7956C12.5392 14.7756 14.8783 18.2372 18.3034 20.0056C18.9218 20.3186 19.8094 20.6412 20.1107 20.7295C21.0871 21.0076 22.2853 21.1925 23.3518 21.2699C23.714 21.296 24.9788 21.3097 25.3474 21.311H45.345V18.5433H25.3811C25.1155 18.5433 23.9552 18.5337 23.6954 18.5173ZM25.3811 14.1715C25.1699 14.1715 24.0654 14.1647 23.8614 14.1483C23.5157 14.1202 23.0147 14.0709 22.6926 14.0003C22.329 13.9072 21.9875 13.7839 21.8336 13.7031C20.7549 13.1449 20.0198 12.0531 20.0198 10.7956C20.0198 8.96623 21.5681 7.48272 23.4806 7.48272C25.3531 7.48272 26.8756 8.90801 26.9365 10.6888H29.7266C29.6679 7.43546 26.8964 4.81363 23.4806 4.81363C20.027 4.81363 17.2275 7.49162 17.2275 10.7956C17.2275 13.1257 18.6233 15.1379 20.6562 16.1235C20.969 16.2989 21.5573 16.4824 21.7248 16.5242C22.2989 16.6687 23.0698 16.7673 23.6954 16.8112C23.9266 16.8297 25.059 16.8379 25.298 16.8393V16.8434H45.3443V14.1715H25.3811ZM10.7497 21.3008H7.82642V3.10889H3.55461V0.311033H10.7497V21.3008ZM0.345032 4.50679V7.19711H3.55461V21.3008H6.36336V4.50679H0.345032Z" fill="#D91920"/>
<path d="M40.1797 0.506413C39.1267 0.506413 38.2535 1.30981 38.2535 2.318C38.2535 3.32618 39.1267 4.16177 40.1797 4.16177C41.2648 4.16177 42.1044 3.32618 42.1044 2.318C42.1044 1.30981 41.2648 0.506413 40.1797 0.506413ZM40.1797 3.86452C39.31 3.86452 38.5606 3.21043 38.5606 2.318C38.5606 1.47077 39.31 0.80024 40.1797 0.80024C41.0486 0.80024 41.7945 1.47077 41.7945 2.318C41.7945 3.21043 41.0486 3.86452 40.1797 3.86452Z" fill="#D91920"/>
<path d="M40.9131 2.81444C40.9131 2.61102 40.8816 2.42198 40.6382 2.34733C40.9431 2.24596 40.9732 2.05487 40.9732 1.93912C40.9732 1.47133 40.5294 1.41174 40.3469 1.41174H39.5073V3.22333H39.8573V2.4802H40.1329C40.5294 2.4802 40.5623 2.65485 40.5623 2.81444C40.5623 3.12333 40.5623 3.18155 40.6382 3.22333H40.9889C40.9131 3.15004 40.9431 3.09319 40.9131 2.81444ZM40.2703 2.21583H39.8573V1.6453H40.2109C40.4557 1.6453 40.6217 1.71927 40.6217 1.93912C40.6217 2.05487 40.5623 2.21583 40.2703 2.21583Z" fill="#D91920"/>
</g>
</g>
<defs>
<clipPath id="clip0_1_822">
<rect width="45" height="21" fill="white" transform="translate(0.345032 0.311005)"/>
</clipPath>
</defs>
</svg>
