<svg width="95" height="19" viewBox="0 0 95 19" fill="none" xmlns="http://www.w3.org/2000/svg">
<g clip-path="url(#clip0_1_794)">
<path d="M58.3715 18.5897H68.3663V16.34H61.7387C62.6473 12.6086 68.2059 11.7855 68.2059 7.61522C68.2059 5.36545 66.7094 3.71927 63.6094 3.71927C61.6318 3.71927 59.9749 4.32287 58.799 4.92647L59.4939 7.01162C60.5628 6.51777 61.7387 6.02392 63.1818 6.02392C64.3577 6.02392 65.4266 6.51777 65.4266 7.88958C65.4801 10.9624 58.9594 11.1819 58.3715 18.5897Z" fill="#0066A1"/>
<path d="M88.3559 15.4619C85.3093 15.4619 82.7972 12.8829 82.7972 9.75519C82.7972 6.62746 85.3093 4.04845 88.3559 4.04845C91.4024 4.04845 93.9145 6.62746 93.9145 9.75519C93.9145 12.8829 91.4024 15.4619 88.3559 15.4619ZM88.3559 5.09103C85.8438 5.09103 83.8128 7.17618 83.8128 9.75519C83.8128 12.3342 85.8438 14.4194 88.3559 14.4194C90.8679 14.4194 92.899 12.3342 92.899 9.75519C92.899 7.17618 90.8679 5.09103 88.3559 5.09103Z" fill="#0066A1"/>
<path d="M91.5094 9.75524H88.7301V6.90187H87.9818V10.5235H91.5094V9.75524Z" fill="#0066A1"/>
<path d="M1.28845 1.68898H6.0988C9.62638 1.68898 11.2298 3.77414 11.2298 5.96904C11.2298 7.4506 10.535 8.76754 9.25225 9.48088V9.53576C11.1764 10.0296 12.3522 11.6209 12.3522 13.5963C12.3522 16.2302 10.4281 18.5897 6.57983 18.5897H1.28845V1.68898ZM5.72466 8.76754C7.38156 8.76754 8.29018 7.83471 8.29018 6.51777C8.29018 5.2557 7.48845 4.26799 5.72466 4.26799H4.335V8.76754H5.72466ZM6.20569 16.0656C8.18328 16.0656 9.30569 15.2974 9.30569 13.5963C9.30569 12.1696 8.23673 11.2917 6.57983 11.2917H4.335V16.0656H6.20569Z" fill="#2FC7F8"/>
<path d="M14.597 2.67667C14.597 1.63409 15.3988 0.811005 16.4143 0.811005C17.4298 0.811005 18.285 1.57922 18.285 2.67667C18.285 3.66438 17.4833 4.48747 16.4143 4.48747C15.3453 4.48747 14.597 3.71925 14.597 2.67667ZM14.9177 6.46288H17.9108V18.5897H14.9177V6.46288Z" fill="#2FC7F8"/>
<path d="M21.9195 15.6266V8.87731H19.7816V6.46291H21.9195V3.66441L24.9127 2.78645V6.46291H28.4937L27.7454 8.87731H24.9127V14.8584C24.9127 16.0107 25.2868 16.3948 26.0885 16.3948C26.7833 16.3948 27.4247 16.1205 27.9058 15.7913L28.8144 17.8764C27.9592 18.48 26.5161 18.8092 25.3402 18.8092C23.2023 18.8641 21.9195 17.6569 21.9195 15.6266Z" fill="#2FC7F8"/>
<path d="M30.4181 6.46292H32.9301L33.2508 7.83473C34.3198 6.73728 35.2819 6.18855 36.5112 6.18855C37.0457 6.18855 37.687 6.35317 38.1681 6.68241L37.0991 9.26142C36.5646 8.93218 36.0836 8.87731 35.7629 8.87731C34.9612 8.87731 34.3198 9.20654 33.3577 10.0845V18.6446H30.3646V6.46292H30.4181Z" fill="#2FC7F8"/>
<path d="M39.3431 2.67667C39.3431 1.63409 40.1449 0.811005 41.1604 0.811005C42.1759 0.811005 42.9776 1.63409 42.9776 2.67667C42.9776 3.66438 42.1759 4.48747 41.1069 4.48747C40.038 4.48747 39.3431 3.71925 39.3431 2.67667ZM39.6638 6.46288H42.6569V18.5897H39.6638V6.46288Z" fill="#2FC7F8"/>
<path d="M48.6969 12.4989L44.421 6.46288H47.521L50.3003 10.4137L53.1331 6.46288H56.2331L51.9038 12.4989L56.2865 18.5897H53.1865L50.3538 14.5291L47.4676 18.5897H44.3676L48.6969 12.4989Z" fill="#2FC7F8"/>
<path d="M77.6662 12.8281V3.71927H75.7955L68.6869 13.2122V15.023H75.1007V18.6446H77.6662V15.023H79.8041V12.8281H77.6662ZM75.1007 10.6881V12.7732H73.3903C72.8558 12.7732 71.8938 12.8281 71.5731 12.8281L75.2076 7.77984C75.2076 8.21882 75.1007 9.53576 75.1007 10.6881Z" fill="#0066A1"/>
</g>
<defs>
<clipPath id="clip0_1_794">
<rect width="94" height="18" fill="white" transform="translate(0.345093 0.811005)"/>
</clipPath>
</defs>
</svg>
