<svg width="134" height="24" viewBox="0 0 134 24" fill="none" xmlns="http://www.w3.org/2000/svg">
<g clip-path="url(#clip0_1_856)">
<path d="M16.7777 22.3309C16.7775 22.6677 16.6411 22.9907 16.3985 23.2288C16.156 23.467 15.8271 23.6009 15.4841 23.6011H1.68089C1.33788 23.6011 1.00889 23.4675 0.766157 23.2295C0.52342 22.9916 0.386777 22.6687 0.386231 22.3319V2.4941C0.386095 2.32712 0.41949 2.16175 0.484505 2.00746C0.54952 1.85316 0.644879 1.71297 0.765126 1.5949C0.885374 1.47682 1.02815 1.38319 1.18529 1.31935C1.34242 1.25551 1.51084 1.22272 1.68089 1.22286H10.5394L16.7777 7.46975V22.3309Z" fill="#23A566"/>
<path d="M11.2259 7.3068L16.7777 12.5173V7.43331H11.8598C11.6451 7.4357 11.4335 7.38339 11.2455 7.28149L11.2259 7.3068Z" fill="#1C8F5A"/>
<path d="M16.7777 7.45963H11.8464C11.5034 7.45936 11.1745 7.32545 10.932 7.08729C10.6894 6.84914 10.5531 6.52621 10.5528 6.1894V1.18845L16.7777 7.45963Z" fill="#8ED1B1"/>
<path fill-rule="evenodd" clip-rule="evenodd" d="M12.8309 19.4757H4.30115V12.2136H12.8309V19.4757ZM9.09635 13.2612V14.5324H11.7826V13.2632L9.09635 13.2612ZM9.09635 15.333V16.5476H11.7826V15.3269L9.09635 15.333ZM9.09635 17.3219V18.4463H11.7826V17.3158L9.09635 17.3219ZM8.04186 18.4403V17.3158H5.35667V18.4403H8.04186ZM8.04186 16.5344V15.3269H5.35667V16.5405L8.04186 16.5344ZM8.04186 14.5456V13.2612H5.35667V14.5324L8.04186 14.5456Z" fill="white"/>
<path d="M45.9633 12.4181C45.9633 10.825 44.7408 9.73592 43.3214 9.73592C41.902 9.73592 40.6785 10.825 40.6785 12.4181C40.6785 13.995 41.902 15.1002 43.3214 15.1002C44.7408 15.1002 45.9633 13.993 45.9633 12.4181ZM48.0207 12.4181C48.0207 14.9666 45.9107 16.8452 43.3204 16.8452C40.731 16.8452 38.621 14.9666 38.621 12.4181C38.621 9.8513 40.731 7.991 43.3214 7.991C45.9107 7.991 48.0207 9.8513 48.0207 12.4181ZM56.101 12.4181C56.101 10.825 54.8785 9.73592 53.4591 9.73592C52.0397 9.73592 50.8172 10.825 50.8172 12.4181C50.8172 13.995 52.0397 15.1002 53.4591 15.1002C54.8785 15.1002 56.101 13.993 56.101 12.4181ZM58.1585 12.4181C58.1585 14.9666 56.0485 16.8452 53.4591 16.8452C50.8698 16.8452 48.7588 14.9666 48.7588 12.4181C48.7588 9.85333 50.8698 7.991 53.4591 7.991C56.0485 7.991 58.1585 9.8513 58.1585 12.4181ZM66.0677 12.4333C66.0677 10.8746 64.9668 9.73491 63.567 9.73491C62.1466 9.73491 60.9581 10.8746 60.9581 12.4333C60.9581 13.9768 62.1466 15.1002 63.566 15.1002C64.9668 15.1002 66.0677 13.9758 66.0677 12.4333ZM67.8757 8.2582V16.2065C67.8757 19.4757 65.8347 20.8117 63.4227 20.8117C62.546 20.8258 61.6846 20.5857 60.9461 20.1216C60.2076 19.6576 59.6249 18.99 59.2707 18.2024L61.0612 17.498C61.3807 18.2186 62.162 19.0688 63.4216 19.0688C64.9647 19.0688 65.9213 18.168 65.9213 16.4737V15.8361H65.8491C65.3894 16.3735 64.5019 16.8431 63.3825 16.8431C61.0405 16.8431 58.8945 14.915 58.8945 12.4343C58.8945 9.9343 61.0405 7.991 63.3825 7.991C64.4998 7.991 65.3874 8.45962 65.8502 8.98087H65.9223V8.26023H67.8757V8.2582ZM71.0969 3.59733H69.0899V16.5729H71.0958L71.0969 3.59733ZM74.0006 12.2804L78.1876 10.6377C77.9577 10.0841 77.264 9.69948 76.4497 9.69948C75.4035 9.69948 73.948 10.5719 74.0006 12.2804ZM78.9164 13.8725L80.5131 14.8786C80.0737 15.4924 79.4886 15.992 78.8085 16.3339C78.1283 16.6759 77.3735 16.8499 76.6095 16.8411C73.948 16.8411 71.9606 14.8978 71.9606 12.414C71.9606 9.78147 73.9655 7.98695 76.3796 7.98695C78.8102 7.98695 79.9997 9.81487 80.3894 10.8027L80.6017 11.3057L74.3387 13.7571C74.818 14.6458 75.5643 15.0982 76.6095 15.0982C77.6578 15.0982 78.3834 14.6114 78.9164 13.8725ZM31.0252 11.2642V9.38572H37.7232C37.7882 9.71264 37.8222 10.1003 37.8222 10.5193C37.8222 11.9282 37.415 13.6711 36.1008 14.912C34.8226 16.1701 33.1898 16.8411 31.0273 16.8411C27.0175 16.8411 23.6469 13.7541 23.6469 9.96669C23.6469 6.17928 27.0175 3.09227 31.0273 3.09227C33.2455 3.09227 34.8247 3.91412 36.0121 4.98597L34.6103 6.31187C33.7588 5.55682 32.6054 4.97079 31.0252 4.97079C28.0978 4.97079 25.8084 7.19951 25.8084 9.96669C25.8084 12.7339 28.0978 14.9626 31.0252 14.9626C32.9239 14.9626 34.0052 14.2419 34.6979 13.5871C35.2607 13.0557 35.6297 12.2976 35.7761 11.2622L31.0252 11.2642ZM92.6433 13.8472C92.6433 14.8725 92.2598 15.6964 91.494 16.3178C90.7157 16.9292 89.7726 17.2348 88.6614 17.2348C87.6718 17.2348 86.8008 16.9514 86.0453 16.3836C85.2897 15.8168 84.7671 15.0415 84.4785 14.0598L85.9453 13.4717C86.0453 13.8199 86.1834 14.1367 86.3617 14.4201C86.539 14.7035 86.7452 14.9494 86.9781 15.1569C87.2224 15.3533 87.4894 15.5112 87.778 15.6306C88.0666 15.7399 88.3717 15.7946 88.6944 15.7946C89.3943 15.7946 89.9664 15.6205 90.4106 15.2713C90.8549 14.911 91.0775 14.4363 91.0775 13.8472C91.0775 13.3563 90.8941 12.9363 90.5271 12.5881C90.1828 12.2501 89.5386 11.9221 88.5944 11.6063C87.6388 11.2683 87.0451 11.0395 86.8111 10.9181C85.5453 10.2865 84.9114 9.35333 84.9114 8.12055C84.9114 7.25923 85.2619 6.5234 85.9618 5.91208C86.673 5.30176 87.545 4.9961 88.5779 4.9961C89.4891 4.9961 90.2776 5.22484 90.9435 5.68334C91.6105 6.1307 92.0547 6.69243 92.2774 7.36854L90.8446 7.9576C90.7095 7.5191 90.4272 7.13844 90.0437 6.87765C89.6551 6.58312 89.1778 6.43535 88.6109 6.43535C88.011 6.43535 87.5059 6.59931 87.0956 6.92623C86.6833 7.2319 86.4772 7.62967 86.4772 8.12055C86.4772 8.52541 86.639 8.87358 86.9616 9.16811C87.3172 9.46163 88.0893 9.81183 89.2778 10.2157C90.4879 10.6185 91.3497 11.1155 91.8599 11.7035C92.3825 12.2824 92.6433 12.997 92.6433 13.8472ZM94.2225 5.25723H95.7552V8.95556L95.6882 10.0689H95.7552C95.9882 9.67519 96.3438 9.34827 96.8221 9.08714C97.2853 8.83161 97.8071 8.69611 98.3384 8.69342C99.3372 8.69342 100.104 8.97682 100.637 9.54362C101.181 10.1003 101.453 10.8968 101.453 11.9323V16.9727H99.9206V12.2278C99.9206 10.7875 99.2712 10.0679 97.9714 10.0679C97.3488 10.0679 96.8221 10.324 96.3881 10.8371C95.9683 11.3327 95.7437 11.9598 95.7552 12.6043V16.9727H94.2225V5.25723ZM106.92 17.2348C105.72 17.2348 104.731 16.83 103.953 16.0233C103.176 15.2166 102.787 14.1964 102.787 12.9636C102.787 11.742 103.164 10.7278 103.92 9.92114C104.676 9.10232 105.641 8.69342 106.82 8.69342C108.03 8.69342 108.992 9.08107 109.702 9.85535C110.424 10.6185 110.785 11.6934 110.785 13.078L110.769 13.242H104.353C104.376 14.0274 104.642 14.66 105.153 15.1397C105.664 15.6195 106.275 15.8603 106.986 15.8603C107.964 15.8603 108.73 15.3806 109.285 14.4201L110.652 15.0749C110.302 15.7338 109.771 16.2835 109.119 16.662C108.474 17.0435 107.741 17.2348 106.92 17.2348ZM104.469 11.9991H109.152C109.136 11.7354 109.066 11.4777 108.946 11.2415C108.825 11.0053 108.658 10.7954 108.452 10.6246C108.041 10.2531 107.486 10.0679 106.786 10.0679C106.208 10.0679 105.708 10.242 105.286 10.5912C104.876 10.9404 104.603 11.411 104.469 11.9991ZM115.935 17.2348C114.735 17.2348 113.745 16.83 112.968 16.0233C112.191 15.2166 111.801 14.1964 111.801 12.9636C111.801 11.742 112.18 10.7278 112.935 9.92114C113.691 9.10232 114.657 8.69342 115.835 8.69342C117.045 8.69342 118.006 9.08107 118.717 9.85535C119.44 10.6185 119.8 11.6934 119.8 13.078L119.784 13.242H113.368C113.391 14.0274 113.657 14.66 114.168 15.1397C114.679 15.6195 115.29 15.8603 116.001 15.8603C116.979 15.8603 117.745 15.3806 118.3 14.4201L119.667 15.0749C119.317 15.7341 118.786 16.2838 118.134 16.662C117.489 17.0435 116.756 17.2348 115.935 17.2348ZM113.485 11.9991H118.168C118.151 11.7354 118.081 11.4777 117.961 11.2415C117.84 11.0053 117.673 10.7954 117.468 10.6246C117.056 10.2531 116.501 10.0679 115.801 10.0679C115.224 10.0679 114.724 10.242 114.301 10.5912C113.891 10.9404 113.618 11.411 113.485 11.9991ZM124.19 17.1032C123.525 17.1032 122.969 16.9008 122.525 16.498C122.091 16.0941 121.869 15.5324 121.858 14.8128V10.329H120.425V8.95556H121.858V6.50114H123.391V8.95556H125.39V10.33H123.391V14.3219C123.391 14.8563 123.497 15.2227 123.708 15.418C123.918 15.6033 124.157 15.6964 124.424 15.6964C124.546 15.6964 124.662 15.6863 124.774 15.664C124.896 15.6306 125.007 15.5931 125.107 15.5496L125.59 16.8907C125.19 17.0324 124.724 17.1032 124.19 17.1032ZM133.26 14.747C133.26 15.4454 132.949 16.0344 132.327 16.5142C131.705 16.9939 130.921 17.2348 129.977 17.2348C129.156 17.2348 128.433 17.0273 127.812 16.6124C127.203 16.2042 126.737 15.6213 126.479 14.9434L127.845 14.3715C128.044 14.8512 128.333 15.2278 128.711 15.5C129.1 15.7622 129.522 15.8927 129.977 15.8927C130.467 15.8927 130.872 15.7895 131.194 15.582C131.527 15.3745 131.693 15.1296 131.693 14.8452C131.693 14.333 131.294 13.9565 130.494 13.7166L129.095 13.3725C127.505 12.9808 126.712 12.2278 126.712 11.1155C126.712 10.3847 127.012 9.8007 127.612 9.36447C128.223 8.9171 129 8.69342 129.944 8.69342C130.666 8.69342 131.316 8.86245 131.893 9.2005C132.483 9.53855 132.893 9.99199 133.127 10.5588L131.76 11.1155C131.603 10.7756 131.333 10.4986 130.994 10.33C130.639 10.131 130.236 10.0293 129.828 10.0355C129.428 10.0355 129.067 10.1337 128.744 10.329C128.433 10.5264 128.277 10.7663 128.277 11.0497C128.277 11.5082 128.717 11.8351 129.595 12.0314L130.828 12.3422C132.449 12.7349 133.26 13.5365 133.26 14.747Z" fill="#787879"/>
</g>
<defs>
<clipPath id="clip0_1_856">
<rect width="133" height="23" fill="white" transform="translate(0.260254 0.850159)"/>
</clipPath>
</defs>
</svg>
