<svg width="84" height="22" viewBox="0 0 84 22" fill="none" xmlns="http://www.w3.org/2000/svg">
<g clip-path="url(#clip0_1_862)">
<path d="M26.9036 16.491L27.9493 14.1099C29.0795 14.9366 30.5807 15.3666 32.065 15.3666C33.1614 15.3666 33.853 14.9532 33.853 14.3248C33.8361 12.5721 27.2915 13.9445 27.2409 9.54609C27.224 7.3138 29.2481 5.59412 32.1156 5.59412C33.8192 5.59412 35.5228 6.0075 36.7373 6.95002L35.759 9.38073C34.6457 8.68624 33.2626 8.19018 31.9469 8.19018C31.053 8.19018 30.4626 8.60357 30.4626 9.1327C30.4795 10.8524 37.0746 9.90987 37.1421 14.1099C37.1421 16.3918 35.1686 17.9957 32.3349 17.9957C30.2602 17.9957 28.3542 17.5162 26.9036 16.491ZM67.0313 13.25C66.5084 14.1429 65.5301 14.7547 64.3999 14.7547C62.7301 14.7547 61.3807 13.4319 61.3807 11.7949C61.3807 10.1579 62.7301 8.83506 64.3999 8.83506C65.5301 8.83506 66.5084 9.44687 67.0313 10.3398L69.9156 8.76892C68.8361 6.88388 66.7614 5.59412 64.3999 5.59412C60.9084 5.59412 58.0746 8.37207 58.0746 11.7949C58.0746 15.2177 60.9084 17.9957 64.3999 17.9957C66.7783 17.9957 68.8361 16.7225 69.9156 14.8209L67.0313 13.25ZM38.5927 0.451599H42.2024V17.7642H38.5927V0.451599ZM71.3325 0.451599V17.7642H74.9421V12.5721L79.2265 17.7642H83.8481L78.3999 11.5965L83.4433 5.84215H79.024L74.9421 10.6209V0.451599H71.3325ZM52.9301 13.2831C52.4072 14.1264 51.3277 14.7547 50.1132 14.7547C48.4433 14.7547 47.0939 13.4319 47.0939 11.7949C47.0939 10.1579 48.4433 8.83506 50.1132 8.83506C51.3277 8.83506 52.4072 9.49648 52.9301 10.3563V13.2831ZM52.9301 5.84215V7.24766C52.3397 6.27207 50.8722 5.59412 49.3373 5.59412C46.1662 5.59412 43.6698 8.339 43.6698 11.7784C43.6698 15.2177 46.1662 17.9957 49.3373 17.9957C50.8722 17.9957 52.3397 17.3177 52.9301 16.3421V17.7477H56.5397V5.84215H52.9301Z" fill="black"/>
<path d="M4.58778 13.2665C4.58778 14.4736 3.5926 15.4492 2.36127 15.4492C1.12995 15.4492 0.134766 14.4736 0.134766 13.2665C0.134766 12.0595 1.12995 11.0839 2.36127 11.0839H4.58778V13.2665ZM5.70103 13.2665C5.70103 12.0595 6.69621 11.0839 7.92754 11.0839C9.15886 11.0839 10.154 12.0595 10.154 13.2665V18.7232C10.154 19.9303 9.15886 20.9059 7.92754 20.9059C6.69621 20.9059 5.70103 19.9303 5.70103 18.7232V13.2665Z" fill="#E01E5A"/>
<path d="M7.92768 4.50278C6.69635 4.50278 5.70117 3.52718 5.70117 2.3201C5.70117 1.11301 6.69635 0.137421 7.92768 0.137421C9.15901 0.137421 10.1542 1.11301 10.1542 2.3201V4.50278H7.92768ZM7.92768 5.61065C9.15901 5.61065 10.1542 6.58624 10.1542 7.79333C10.1542 9.00041 9.15901 9.976 7.92768 9.976H2.34455C1.11322 9.976 0.118042 9.00041 0.118042 7.79333C0.118042 6.58624 1.11322 5.61065 2.34455 5.61065H7.92768Z" fill="#36C5F0"/>
<path d="M16.8506 7.79333C16.8506 6.58624 17.8457 5.61065 19.0771 5.61065C20.3084 5.61065 21.3036 6.58624 21.3036 7.79333C21.3036 9.00041 20.3084 9.976 19.0771 9.976H16.8506V7.79333ZM15.7373 7.79333C15.7373 9.00041 14.7421 9.976 13.5108 9.976C12.2795 9.976 11.2843 9.00041 11.2843 7.79333V2.3201C11.2843 1.11301 12.2795 0.137421 13.5108 0.137421C14.7421 0.137421 15.7373 1.11301 15.7373 2.3201V7.79333Z" fill="#2EB67D"/>
<path d="M13.5108 16.5406C14.7421 16.5406 15.7373 17.5161 15.7373 18.7232C15.7373 19.9303 14.7421 20.9059 13.5108 20.9059C12.2795 20.9059 11.2843 19.9303 11.2843 18.7232V16.5406H13.5108ZM13.5108 15.4492C12.2795 15.4492 11.2843 14.4736 11.2843 13.2665C11.2843 12.0595 12.2795 11.0839 13.5108 11.0839H19.0939C20.3253 11.0839 21.3204 12.0595 21.3204 13.2665C21.3204 14.4736 20.3253 15.4492 19.0939 15.4492H13.5108Z" fill="#ECB22E"/>
</g>
<defs>
<clipPath id="clip0_1_862">
<rect width="84" height="21" fill="white" transform="translate(0 0.038208)"/>
</clipPath>
</defs>
</svg>
