<svg width="31" height="25" viewBox="0 0 31 25" fill="none" xmlns="http://www.w3.org/2000/svg">
<path d="M2.36526 10.7654L20.0666 3.47213C21.8139 2.71242 27.7397 0.281333 27.7397 0.281333C27.7397 0.281333 30.4746 -0.782266 30.2467 1.80076C30.1708 2.86436 29.563 6.58695 28.9552 10.6134L27.0559 22.5409C27.0559 22.5409 26.904 24.2883 25.6125 24.5922C24.321 24.896 22.1938 23.5286 21.8139 23.2247C21.51 22.9968 16.1161 19.578 14.1408 17.9067C13.609 17.4509 13.0012 16.5392 14.2168 15.4756C16.9518 12.9685 20.2185 9.85372 22.1938 7.87847C23.1054 6.96681 24.0171 4.83961 20.2185 7.42264L9.50656 14.6399C9.50656 14.6399 8.29102 15.3996 6.01188 14.7159C3.73274 14.0321 1.07375 13.1205 1.07375 13.1205C1.07375 13.1205 -0.749565 11.9809 2.36526 10.7654Z" fill="#28A8EA"/>
</svg>
