<svg width="35" height="21" viewBox="0 0 35 21" fill="none" xmlns="http://www.w3.org/2000/svg">
<path d="M33.3254 16.1374C32.5851 15.2331 31.7439 14.4226 30.9303 13.6388C30.6411 13.3601 30.342 13.0719 30.0536 12.7853C29.2259 11.9617 29.1957 11.6523 29.8511 10.7168C30.3045 10.0719 30.7853 9.42622 31.2502 8.80175C31.6719 8.23518 32.108 7.64928 32.526 7.06148L32.6118 6.94062C33.4107 5.81578 34.2368 4.65264 34.6765 3.24952C34.7907 2.87933 34.9106 2.33457 34.6365 1.87905C34.3625 1.42391 33.8312 1.28506 33.4552 1.2202C33.2693 1.18811 33.0846 1.18373 32.9133 1.18373L27.6817 1.17992L27.6385 1.17954C26.8475 1.17954 26.3144 1.55886 26.0089 2.33933C25.7173 3.08504 25.397 3.87913 25.0314 4.63417C24.304 6.13768 23.3801 7.86938 22.0432 9.31365L21.9867 9.37508C21.8288 9.54774 21.65 9.74326 21.5192 9.74326C21.4992 9.74326 21.4774 9.73936 21.4527 9.73145C21.1758 9.62164 20.9899 8.93946 20.9983 8.62213C20.9984 8.61775 20.9985 8.61337 20.9985 8.60899L20.9948 2.45571C20.9948 2.43438 20.9934 2.41324 20.9906 2.39209C20.8576 1.39182 20.5628 0.769158 19.4489 0.54716C19.4193 0.54116 19.3891 0.538208 19.359 0.538208H13.9192C13.0329 0.538208 12.5446 0.904776 12.0855 1.45344C11.9616 1.6001 11.7037 1.90543 11.8315 2.27581C11.9612 2.65171 12.3823 2.73209 12.5194 2.75819C13.1999 2.88999 13.5836 3.31361 13.6922 4.05379C13.8819 5.33911 13.9052 6.71101 13.7656 8.37128C13.7267 8.8327 13.6496 9.18908 13.5227 9.49355C13.4932 9.5646 13.3887 9.7965 13.2821 9.7966C13.2482 9.7966 13.1503 9.78307 12.9718 9.65793C12.5498 9.36374 12.2411 8.94394 11.8811 8.42537C10.6566 6.66434 9.62897 4.72436 8.73897 2.49324C8.40889 1.67191 7.79243 1.21211 7.00238 1.19858C6.13427 1.18515 5.34721 1.17868 4.59655 1.17868C3.77636 1.17868 3.01597 1.18639 2.27346 1.20211C1.63782 1.21353 1.19815 1.40744 0.966807 1.77886C0.735087 2.15057 0.750154 2.63885 1.01163 3.2299C3.10479 7.96538 5.00262 11.4085 7.16541 14.3944C8.68085 16.4837 10.2009 17.9299 11.9485 18.9452C13.7897 20.0171 15.8531 20.5382 18.2564 20.5382C18.5288 20.5382 18.8105 20.5314 19.0946 20.5179C20.4911 20.4487 21.0092 19.9343 21.0747 18.5506C21.1058 17.8435 21.1818 17.1019 21.5234 16.4694C21.739 16.0709 21.9401 16.0709 22.0061 16.0709C22.1334 16.0709 22.2912 16.1305 22.4607 16.2422C22.7647 16.4442 23.0253 16.7146 23.239 16.9509C23.4401 17.1754 23.6389 17.4021 23.838 17.629C24.2676 18.1186 24.7117 18.6248 25.1757 19.1049C26.1913 20.1564 27.3102 20.6189 28.5952 20.5185H33.3917C33.4019 20.5185 33.4122 20.5181 33.4224 20.5174C33.9003 20.4854 34.3142 20.2155 34.558 19.7773C34.86 19.2343 34.854 18.5417 34.5418 17.9239C34.1875 17.2255 33.728 16.6287 33.3254 16.1374Z" fill="#5181B8"/>
</svg>
